<?xml version="1.0" encoding="UTF-8"?>
<svg width="1558px" height="450px" viewBox="0 0 1558 450" version="1.1" xmlns="http://www.w3.org/2000/svg" xmlns:xlink="http://www.w3.org/1999/xlink">
    <!-- Generator: Sketch 64 (93537) - https://sketch.com -->
    <title>Tasks and code</title>
    <desc>Created with Sketch.</desc>
    <defs>
        <rect id="path-1" x="1.134119e-13" y="0" width="549.758162" height="133" rx="10"></rect>
        <filter x="-0.1%" y="-1.1%" width="100.2%" height="101.5%" filterUnits="objectBoundingBox" id="filter-2">
            <feOffset dx="0" dy="-1" in="SourceAlpha" result="shadowOffsetOuter1"></feOffset>
            <feColorMatrix values="0 0 0 0 0.105882353   0 0 0 0 0.121568627   0 0 0 0 0.137254902  0 0 0 0.12 0" type="matrix" in="shadowOffsetOuter1"></feColorMatrix>
        </filter>
        <filter x="-1.0%" y="-4.9%" width="102.0%" height="109.0%" filterUnits="objectBoundingBox" id="filter-3">
            <feGaussianBlur stdDeviation="1.5" in="SourceAlpha" result="shadowBlurInner1"></feGaussianBlur>
            <feOffset dx="0" dy="-8" in="shadowBlurInner1" result="shadowOffsetInner1"></feOffset>
            <feComposite in="shadowOffsetInner1" in2="SourceAlpha" operator="arithmetic" k2="-1" k3="1" result="shadowInnerInner1"></feComposite>
            <feColorMatrix values="0 0 0 0 0.105882353   0 0 0 0 0.121568627   0 0 0 0 0.137254902  0 0 0 0.5 0" type="matrix" in="shadowInnerInner1"></feColorMatrix>
        </filter>
    </defs>
    <g id="Tasks-and-code" stroke="none" stroke-width="1" fill="none" fill-rule="evenodd">
        <rect fill="#FFFFFF" x="0" y="0" width="1558" height="450"></rect>
        <g id="Group" transform="translate(206.000000, 159.000000)">
            <text id="Your-tasks-and-code." font-family="HelveticaNeue-Bold, Helvetica Neue" font-size="60" font-weight="bold" fill="#252F3F">
                <tspan x="596" y="59">Your tasks and code.</tspan>
                <tspan x="596" y="131">All in GitHub.</tspan>
            </text>
            <g id="Logo-Grey">
                <g id="Rectangle">
                    <use fill="black" fill-opacity="1" filter="url(#filter-2)" xlink:href="#path-1"></use>
                    <use fill="#F4F5F7" fill-rule="evenodd" xlink:href="#path-1"></use>
                    <use fill="black" fill-opacity="1" filter="url(#filter-3)" xlink:href="#path-1"></use>
                </g>
                <path d="M51.8742443,94.43 L51.8742443,23.2085 L37.7085852,23.2085 L37.7085852,94.43 L51.8742443,94.43 Z M78.4099154,95.72675 C81.6021765,95.72675 84.7279323,95.26125 87.7871826,94.33025 C90.8464329,93.39925 93.5066505,91.77 95.7678356,89.4425 C95.834341,90.307 95.9507255,91.154875 96.1169891,91.986125 C96.2832527,92.817375 96.4993954,93.632 96.7654172,94.43 L96.7654172,94.43 L111.130593,94.43 C110.465538,93.366 110,91.77 109.733978,89.642 C109.467956,87.514 109.334946,85.28625 109.334946,82.95875 L109.334946,82.95875 L109.334946,56.126 C109.334946,53.0005 108.636638,50.490125 107.240024,48.594875 C105.84341,46.699625 104.047763,45.22 101.853083,44.156 C99.6584039,43.092 97.2309553,42.377125 94.5707376,42.011375 C91.91052,41.645625 89.283555,41.46275 86.6898428,41.46275 C83.8301088,41.46275 80.9870012,41.745375 78.16052,42.310625 C75.3340387,42.875875 72.7902056,43.8235 70.5290206,45.1535 C68.2678356,46.4835 66.4056832,48.24575 64.9425635,50.44025 C63.4794438,52.63475 62.6481258,55.3945 62.4486094,58.7195 L62.4486094,58.7195 L76.6142684,58.7195 C76.8802902,55.9265 77.8113664,53.9315 79.407497,52.7345 C81.0036276,51.5375 83.1983071,50.939 85.9915357,50.939 C87.2551391,50.939 88.4356106,51.022125 89.5329504,51.188375 C90.6302902,51.354625 91.5946191,51.687125 92.4259371,52.185875 C93.2572551,52.684625 93.9223096,53.382875 94.4211004,54.280625 C94.9198912,55.178375 95.1692866,56.392 95.1692866,57.9215 C95.235792,59.3845 94.8035067,60.498375 93.8724305,61.263125 C92.9413543,62.027875 91.6777509,62.60975 90.0816203,63.00875 C88.4854897,63.40775 86.6565901,63.707 84.5949214,63.9065 C82.5332527,64.106 80.4383313,64.372 78.3101572,64.7045 C76.1819831,65.037 74.0704353,65.485875 71.9755139,66.051125 C69.8805925,66.616375 68.0184401,67.46425 66.3890568,68.59475 C64.7596735,69.72525 63.4295647,71.238125 62.3987304,73.133375 C61.367896,75.028625 60.8524788,77.43925 60.8524788,80.36525 C60.8524788,83.02525 61.3013906,85.3195 62.199214,87.248 C63.0970375,89.1765 64.3440145,90.7725 65.9401451,92.036 C67.5362757,93.2995 69.3984281,94.2305 71.5266022,94.829 C73.6547763,95.4275 75.949214,95.72675 78.4099154,95.72675 Z M83.6970979,86.35025 C82.5665054,86.35025 81.4691657,86.2505 80.4050786,86.051 C79.3409915,85.8515 78.4099154,85.502375 77.6118501,85.003625 C76.8137848,84.504875 76.1819831,83.82325 75.716445,82.95875 C75.2509069,82.09425 75.0181378,81.03025 75.0181378,79.76675 C75.0181378,78.43675 75.2509069,77.3395 75.716445,76.475 C76.1819831,75.6105 76.7971584,74.895625 77.561971,74.330375 C78.3267836,73.765125 79.224607,73.31625 80.2554414,72.98375 C81.2862757,72.65125 82.3337364,72.38525 83.3978235,72.18575 C84.528416,71.98625 85.6590085,71.82 86.789601,71.687 C87.9201935,71.554 89.0009069,71.38775 90.0317412,71.18825 C91.0625756,70.98875 92.0269045,70.739375 92.9247279,70.440125 C93.8225514,70.140875 94.5707376,69.72525 95.1692866,69.19325 L95.1692866,69.19325 L95.1692866,74.48 C95.1692866,75.278 95.0861548,76.342 94.9198912,77.672 C94.7536276,79.002 94.3047158,80.315375 93.573156,81.612125 C92.8415961,82.908875 91.7110036,84.02275 90.1813785,84.95375 C88.6517533,85.88475 86.4903265,86.35025 83.6970979,86.35025 Z M150.934099,95.72675 C153.527811,95.72675 156.088271,95.19475 158.615478,94.13075 C161.142684,93.06675 163.420496,91.4375 165.448912,89.243 C167.477328,87.0485 169.123337,84.238875 170.386941,80.814125 C171.650544,77.389375 172.282346,73.31625 172.282346,68.59475 C172.282346,63.87325 171.650544,59.800125 170.386941,56.375375 C169.123337,52.950625 167.477328,50.141 165.448912,47.9465 C163.420496,45.752 161.142684,44.12275 158.615478,43.05875 C156.088271,41.99475 153.527811,41.46275 150.934099,41.46275 C147.741838,41.46275 144.665961,42.077875 141.706469,43.308125 C138.746977,44.538375 136.40266,46.4835 134.673519,49.1435 L134.474002,49.1435 L134.474002,23.2085 L120.308343,23.2085 L120.308343,94.43 L133.775695,94.43 L133.775695,87.8465 L133.975212,87.8465 C135.504837,90.706 137.766022,92.73425 140.758767,93.93125 C143.751511,95.12825 147.143289,95.72675 150.934099,95.72675 Z M146.045949,85.15325 C143.984281,85.15325 142.188634,84.704375 140.659008,83.806625 C139.129383,82.908875 137.86578,81.69525 136.868198,80.16575 C135.870617,78.63625 135.139057,76.874 134.673519,74.879 C134.207981,72.884 133.975212,70.8225 133.975212,68.6945 C133.975212,66.5 134.207981,64.40525 134.673519,62.41025 C135.139057,60.41525 135.870617,58.653 136.868198,57.1235 C137.86578,55.594 139.129383,54.380375 140.659008,53.482625 C142.188634,52.584875 143.984281,52.136 146.045949,52.136 C148.174123,52.136 149.986397,52.584875 151.482769,53.482625 C152.979141,54.380375 154.226119,55.594 155.2237,57.1235 C156.221282,58.653 156.952842,60.41525 157.41838,62.41025 C157.883918,64.40525 158.116687,66.5 158.116687,68.6945 C158.116687,70.8225 157.883918,72.884 157.41838,74.879 C156.952842,76.874 156.221282,78.63625 155.2237,80.16575 C154.226119,81.69525 152.979141,82.908875 151.482769,83.806625 C149.986397,84.704375 148.174123,85.15325 146.045949,85.15325 Z M205.102781,95.72675 C210.95526,95.72675 215.943168,94.39675 220.066505,91.73675 C224.189843,89.07675 227.249093,84.6545 229.244256,78.47 L216.774486,78.47 C216.308948,80.066 215.045345,81.578875 212.983676,83.008625 C210.922007,84.438375 208.461306,85.15325 205.601572,85.15325 C201.611245,85.15325 198.551995,84.1225 196.423821,82.061 C194.295647,79.9995 193.131802,76.6745 192.932285,72.086 L230.14208,72.086 C230.408102,68.096 230.075574,64.27225 229.144498,60.61475 C228.213422,56.95725 226.700423,53.69875 224.605502,50.83925 C222.51058,47.97975 219.833736,45.702125 216.57497,44.006375 C213.316203,42.310625 209.49214,41.46275 205.102781,41.46275 C201.17896,41.46275 197.604293,42.161 194.378779,43.5575 C191.153265,44.954 188.376663,46.865875 186.048972,49.293125 C183.721282,51.720375 181.925635,54.5965 180.662031,57.9215 C179.398428,61.2465 178.766626,64.8375 178.766626,68.6945 C178.766626,72.6845 179.381802,76.342 180.612152,79.667 C181.842503,82.992 183.588271,85.8515 185.849456,88.2455 C188.110641,90.6395 190.870617,92.484875 194.129383,93.781625 C197.38815,95.078375 201.045949,95.72675 205.102781,95.72675 Z M215.976421,63.1085 L192.932285,63.1085 C192.998791,62.111 193.214933,60.9805 193.580713,59.717 C193.946493,58.4535 194.578295,57.2565 195.476119,56.126 C196.373942,54.9955 197.57104,54.047875 199.067412,53.283125 C200.563785,52.518375 202.442563,52.136 204.703748,52.136 C208.162031,52.136 210.739117,53.067 212.435006,54.929 C214.130895,56.791 215.311366,59.5175 215.976421,63.1085 Z M253.086457,94.43 L253.086457,23.2085 L238.920798,23.2085 L238.920798,94.43 L253.086457,94.43 Z M269.147521,96.026 L296.980048,21.51275 L285.607618,21.51275 L257.874849,96.026 L269.147521,96.026 Z M323.016929,95.72675 C325.943168,95.72675 328.819528,95.444125 331.64601,94.878875 C334.472491,94.313625 336.983071,93.33275 339.177751,91.93625 C341.37243,90.53975 343.151451,88.694375 344.514813,86.400125 C345.878174,84.105875 346.559855,81.263 346.559855,77.8715 C346.559855,75.4775 346.094317,73.465875 345.163241,71.836625 C344.232164,70.207375 343.001814,68.844125 341.472189,67.746875 C339.942563,66.649625 338.196796,65.7685 336.234885,65.1035 C334.272975,64.4385 332.261185,63.87325 330.199516,63.40775 C328.204353,62.94225 326.242443,62.51 324.313785,62.111 C322.385127,61.712 320.672612,61.263125 319.176239,60.764375 C317.679867,60.265625 316.466143,59.61725 315.535067,58.81925 C314.60399,58.02125 314.138452,56.9905 314.138452,55.727 C314.138452,54.663 314.404474,53.815125 314.936518,53.183375 C315.468561,52.551625 316.116989,52.0695 316.881802,51.737 C317.646614,51.4045 318.494559,51.188375 319.425635,51.088625 C320.356711,50.988875 321.221282,50.939 322.019347,50.939 C324.546554,50.939 326.741233,51.421125 328.603386,52.385375 C330.465538,53.349625 331.496372,55.195 331.695889,57.9215 L345.163241,57.9215 C344.897219,54.7295 344.082527,52.086125 342.719166,49.991375 C341.355804,47.896625 339.643289,46.2175 337.58162,44.954 C335.519952,43.6905 333.175635,42.79275 330.54867,42.26075 C327.921705,41.72875 325.211608,41.46275 322.41838,41.46275 C319.625151,41.46275 316.898428,41.712125 314.23821,42.210875 C311.577993,42.709625 309.183797,43.574125 307.055623,44.804375 C304.927449,46.034625 303.214933,47.71375 301.918077,49.84175 C300.621221,51.96975 299.972793,54.69625 299.972793,58.02125 C299.972793,60.28225 300.438331,62.194125 301.369407,63.756875 C302.300484,65.319625 303.530834,66.616375 305.060459,67.647125 C306.590085,68.677875 308.335852,69.509125 310.297763,70.140875 C312.259674,70.772625 314.271463,71.32125 316.333132,71.78675 C321.387545,72.85075 325.327993,73.91475 328.154474,74.97875 C330.980955,76.04275 332.394196,77.63875 332.394196,79.76675 C332.394196,81.03025 332.094921,82.077625 331.496372,82.908875 C330.897823,83.740125 330.149637,84.405125 329.251814,84.903875 C328.35399,85.402625 327.356409,85.768375 326.259069,86.001125 C325.161729,86.233875 324.114268,86.35025 323.116687,86.35025 C321.720073,86.35025 320.373337,86.184 319.076481,85.8515 C317.779625,85.519 316.632406,85.003625 315.634825,84.305375 C314.637243,83.607125 313.822551,82.709375 313.19075,81.612125 C312.558948,80.514875 312.243047,79.2015 312.243047,77.672 L298.775695,77.672 C298.908706,81.13 299.690145,84.006125 301.120012,86.300375 C302.549879,88.594625 304.378779,90.44 306.606711,91.8365 C308.834643,93.233 311.378476,94.2305 314.23821,94.829 C317.097944,95.4275 320.024184,95.72675 323.016929,95.72675 Z M362.521161,112.48475 C367.376058,112.48475 371.166868,111.587 373.893591,109.7915 C376.620314,107.996 378.748489,105.0035 380.278114,100.814 L401.825877,42.85925 L387.161427,42.85925 L375.888755,78.17075 L375.689238,78.17075 L364.017533,42.85925 L348.954051,42.85925 L367.010278,91.238 C367.409311,92.2355 367.608827,93.2995 367.608827,94.43 C367.608827,95.9595 367.159915,97.356 366.262092,98.6195 C365.364268,99.883 363.984281,100.6145 362.122128,100.814 C360.725514,100.8805 359.3289,100.84725 357.932285,100.71425 C356.535671,100.58125 355.17231,100.44825 353.842201,100.31525 L353.842201,111.986 C355.30532,112.119 356.751814,112.235375 358.181681,112.335125 C359.611548,112.434875 361.058041,112.48475 362.521161,112.48475 Z M420.779927,94.43 L420.779927,67.39775 C420.779927,62.14425 421.644498,58.370375 423.37364,56.076125 C425.102781,53.781875 427.89601,52.63475 431.753325,52.63475 C435.145103,52.63475 437.506046,53.682125 438.836155,55.776875 C440.166264,57.871625 440.831318,61.047 440.831318,65.303 L440.831318,94.43 L454.996977,94.43 L454.996977,62.7095 C454.996977,59.5175 454.714329,56.608125 454.149033,53.981375 C453.583736,51.354625 452.602781,49.126875 451.206167,47.298125 C449.809553,45.469375 447.897521,44.039625 445.470073,43.008875 C443.042624,41.978125 439.933495,41.46275 436.142684,41.46275 C433.14994,41.46275 430.2237,42.144375 427.363966,43.507625 C424.504232,44.870875 422.176542,47.04875 420.380895,50.04125 L420.08162,50.04125 L420.08162,42.85925 L406.614268,42.85925 L406.614268,94.43 L420.779927,94.43 Z M490.211608,95.72675 C497.061669,95.72675 502.681378,93.93125 507.070738,90.34025 C511.460097,86.74925 514.120314,81.529 515.051391,74.6795 L501.384522,74.6795 C500.918984,77.8715 499.771765,80.415125 497.942866,82.310375 C496.113966,84.205625 493.503628,85.15325 490.11185,85.15325 C487.91717,85.15325 486.055018,84.6545 484.525393,83.657 C482.995768,82.6595 481.782044,81.379375 480.88422,79.816625 C479.986397,78.253875 479.337969,76.50825 478.938936,74.57975 C478.539903,72.65125 478.340387,70.756 478.340387,68.894 C478.340387,66.9655 478.539903,65.020375 478.938936,63.058625 C479.337969,61.096875 480.019649,59.301375 480.983978,57.672125 C481.948307,56.042875 483.195284,54.712875 484.724909,53.682125 C486.254534,52.651375 488.14994,52.136 490.411125,52.136 C496.46312,52.136 499.954655,55.09525 500.885732,61.01375 L514.752116,61.01375 C514.5526,57.68875 513.754534,54.812625 512.35792,52.385375 C510.961306,49.958125 509.149033,47.929875 506.9211,46.300625 C504.693168,44.671375 502.165961,43.45775 499.33948,42.65975 C496.512999,41.86175 493.570133,41.46275 490.510883,41.46275 C486.32104,41.46275 482.596735,42.161 479.337969,43.5575 C476.079202,44.954 473.319226,46.899125 471.058041,49.392875 C468.796856,51.886625 467.084341,54.845875 465.920496,58.270625 C464.756651,61.695375 464.174728,65.40275 464.174728,69.39275 C464.174728,73.24975 464.80653,76.790875 466.070133,80.016125 C467.333736,83.241375 469.096131,86.01775 471.357316,88.34525 C473.618501,90.67275 476.36185,92.484875 479.587364,93.781625 C482.812878,95.078375 486.354293,95.72675 490.211608,95.72675 Z" id="label/sync" fill="#252F3F" fill-rule="nonzero"></path>
            </g>
        </g>
    </g>
</svg>