<svg width="180" height="90" viewBox="0 0 180 90" fill="none" xmlns="http://www.w3.org/2000/svg">
<path d="M55.5544 35.9686L55.5545 35.9688C55.582 36.0334 55.8905 36.7694 56.0522 37.791C56.2137 38.811 56.2314 40.1313 55.6609 41.3538C54.8695 43.0494 53.1762 44.0016 52.1842 44.4359C52.1423 45.1475 52.053 45.8552 51.9182 46.5559C53.5681 46.2201 55.0751 46.5621 55.1682 46.5838L55.1683 46.5839L56.0323 46.7867C56.1064 46.8041 56.1558 46.8743 56.147 46.95L56.0453 47.8306L56.0452 47.8308C56.037 47.9009 55.9393 48.6931 55.5712 49.6596C55.2036 50.6245 54.5609 51.778 53.454 52.5523C52.1485 53.4659 50.4259 53.6784 48.8624 53.501C48.338 54.1851 47.7436 54.8054 47.1456 55.3515C48.7025 56.0227 49.7534 57.1776 49.8177 57.2493L49.8178 57.2494L50.4128 57.9134C50.4638 57.9704 50.4638 58.0567 50.4128 58.1136L49.8178 58.7777L49.8178 58.7777C49.7707 58.8302 49.2336 59.4205 48.3754 59.9987C47.5185 60.576 46.3285 61.15 44.9788 61.15C43.2192 61.15 41.7303 60.1752 40.8916 59.4818C40.2808 59.8089 39.9358 59.9938 39.7452 60.0961C39.6779 60.1322 39.6301 60.1579 39.5966 60.176C39.5961 60.1764 39.5958 60.1768 39.5955 60.177L39.5953 60.1772C39.5876 60.1838 39.5806 60.1885 39.579 60.1896C39.5737 60.1932 39.5679 60.1967 39.5633 60.1995C39.5267 60.2214 39.4036 60.2902 39.0711 60.472C39.0262 60.4965 38.9719 60.4965 38.9271 60.4719C38.7262 60.3619 38.6692 60.3289 38.6172 60.2989C38.5091 60.2364 38.4225 60.1864 37.1087 59.4818C36.27 60.1752 34.7811 61.15 33.0216 61.15C31.6719 61.15 30.4818 60.576 29.6249 59.9987C28.7668 59.4205 28.2296 58.8302 28.1826 58.7777L28.1825 58.7777L27.5875 58.1136C27.5365 58.0567 27.5365 57.9704 27.5875 57.9134L28.1825 57.2494L28.1826 57.2493C28.247 57.1776 29.2978 56.0225 30.8547 55.3515C30.2568 54.8054 29.6624 54.1851 29.138 53.501C27.5747 53.6784 25.8521 53.4662 24.5463 52.5523C23.4396 51.7781 22.7965 50.6248 22.4285 49.66C22.06 48.6937 21.9618 47.9016 21.9536 47.8317L21.9535 47.8315L21.851 46.9501C21.8422 46.8744 21.8915 46.8041 21.9657 46.7867L22.8302 46.5839L22.8304 46.5838C22.9234 46.5621 24.4316 46.2199 26.0822 46.5559C25.9473 45.8551 25.8583 45.1475 25.8162 44.4359C24.8242 44.0016 23.1308 43.0494 22.3397 41.3537C21.7692 40.1313 21.7868 38.811 21.9483 37.791C22.11 36.7695 22.4184 36.0336 22.4462 35.9686C22.4462 35.9686 22.4462 35.9686 22.4462 35.9686L22.7946 35.1548C22.8245 35.085 22.902 35.0485 22.9749 35.07L23.8244 35.3205L55.5544 35.9686ZM55.5544 35.9686L55.206 35.1548C55.1761 35.085 55.0986 35.0485 55.0257 35.07L54.176 35.3206L54.1759 35.3206C54.0764 35.35 52.3151 35.8823 50.9782 37.2062M55.5544 35.9686L50.9782 37.2062M50.9782 37.2062C50.8441 36.8336 50.6871 36.4734 50.4956 36.126C51.1923 35.3158 52.1027 33.9339 52.1027 32.23C52.1027 30.8752 51.5245 29.6985 50.9428 28.8563C50.3604 28.0132 49.7658 27.4927 49.7123 27.4466C49.7123 27.4466 49.7123 27.4466 49.7123 27.4466L49.0618 26.8863C49.0055 26.8379 48.9223 26.8379 48.866 26.8863L48.2154 27.4466L48.2153 27.4467C48.1624 27.4924 47.5676 28.013 46.9851 28.8563C46.4033 29.6985 45.8251 30.8752 45.8251 32.23C45.8251 34.1061 46.9489 35.8618 48.3768 37.0449C48.9053 37.8991 49.1495 39.0585 49.3885 40.1934C49.407 40.2811 49.4254 40.3687 49.444 40.4559C49.3054 41.9378 49.7194 43.2954 49.9147 43.8373C49.8785 45.2437 49.6306 46.6371 49.1754 47.9869C47.9359 49.2363 47.4727 50.9572 47.3196 51.7246C46.3824 53.0932 45.0157 54.2282 43.9439 54.9875C41.781 55.4431 40.2185 57.1616 40.1401 57.2493L50.9782 37.2062ZM40.1399 57.2495L40.0787 57.3177C39.8816 57.4237 39.6771 57.5328 39.4825 57.6365L39.4482 57.6548C39.2878 57.7403 39.1348 57.8218 38.9997 57.8943C38.8594 57.819 38.7072 57.7377 38.5472 57.6523L38.5188 57.6371C38.3278 57.5352 38.1263 57.4276 37.9212 57.3172C36.9461 56.2513 35.5178 55.2958 34.0572 54.9877C32.9851 54.2279 31.6182 53.0929 30.6813 51.7246C30.528 50.9573 30.0649 49.2363 28.8252 47.9867C28.3703 46.6371 28.1221 45.2437 28.0859 43.837C28.2813 43.2953 28.6952 41.9372 28.5569 40.4553C28.5813 40.3395 28.6053 40.2248 28.629 40.1113C28.8775 38.9208 29.0976 37.8668 29.6007 37.0693C31.0211 35.8464 32.1755 34.0751 32.1755 32.1636C32.1755 30.8025 31.5934 29.6383 31.0075 28.8102C30.4208 27.9811 29.8219 27.4768 29.7682 27.4324L29.7681 27.4323L29.1324 26.906C29.0769 26.86 28.9966 26.86 28.9411 26.906L28.3053 27.4323L28.3052 27.4324C28.2516 27.4768 27.6525 27.9811 27.0659 28.8101C26.4798 29.6383 25.8977 30.8025 25.8977 32.1636C25.8977 33.8695 26.8128 35.28 27.5061 36.106C27.3074 36.4574 27.1473 36.8207 27.0123 37.1962C25.6774 35.8802 23.9259 35.3504 23.8246 35.3206L40.1399 57.2495ZM53.5831 40.3854L53.719 40.4488L53.5831 40.3854C53.22 41.1633 52.4596 41.7195 51.8048 42.0747C51.6694 41.3606 51.6221 40.4437 51.9827 39.6708C52.346 38.8924 53.1065 38.3365 53.7611 37.9813C53.8963 38.6954 53.9439 39.6125 53.5831 40.3854ZM51.1685 49.2907L51.0825 49.1678L51.1685 49.2907C51.862 48.8054 52.7622 48.6908 53.4832 48.6978C53.2444 49.3813 52.8302 50.1922 52.1392 50.6757C51.4452 51.1613 50.5415 51.2759 49.8168 51.2684C50.0577 50.5855 50.4745 49.7762 51.1685 49.2907ZM28.1904 32.1636C28.1904 31.3197 28.6177 30.5472 29.0359 29.9952C29.4545 30.5481 29.8828 31.322 29.8828 32.1636C29.8828 33.0078 29.4566 33.7885 29.0373 34.35C28.6179 33.7877 28.1904 33.0056 28.1904 32.1636ZM24.4173 40.3854C24.057 39.6131 24.1041 38.6966 24.239 37.983C24.8948 38.3394 25.6563 38.896 26.0179 39.6708C26.3783 40.4429 26.3312 41.3592 26.1962 42.0729C25.5405 41.7167 24.7789 41.1599 24.4173 40.3854ZM25.8611 50.6757C25.1675 50.1903 24.7531 49.3801 24.5147 48.6977C25.2368 48.6905 26.1381 48.8051 26.8322 49.2904C27.5261 49.7759 27.9429 50.5854 28.1838 51.2684C27.4591 51.2759 26.5552 51.1613 25.8611 50.6757ZM33.0216 58.8591C32.1745 58.8591 31.3682 58.4346 30.7788 58.0135C31.3684 57.5922 32.1747 57.168 33.0216 57.168C33.8688 57.168 34.6749 57.5921 35.2644 58.0135C34.6749 58.4348 33.8687 58.8591 33.0216 58.8591ZM48.1178 32.23C48.1178 31.3845 48.5439 30.595 48.9639 30.0245C49.3841 30.5954 49.8102 31.3847 49.8102 32.23C49.8102 33.0731 49.382 33.8374 48.9645 34.3802C48.5469 33.8367 48.1178 33.0715 48.1178 32.23ZM44.9788 58.8591C44.1324 58.8591 43.3268 58.4355 42.7374 58.0144C43.3281 57.5929 44.1352 57.168 44.9788 57.168C45.8261 57.168 46.6325 57.5922 47.2216 58.0135C46.6321 58.4348 45.8259 58.8591 44.9788 58.8591Z" fill="url(#paint0_linear)" stroke="url(#paint1_linear)" stroke-width="0.3" stroke-linecap="round" stroke-linejoin="round"/>
<path fill-rule="evenodd" clip-rule="evenodd" d="M39.0001 54.1666C39.0001 54.1666 46.3334 50.4999 46.3334 44.9999V38.5833L39.0001 35.8333L31.6667 38.5833V44.9999C31.6667 50.4999 39.0001 54.1666 39.0001 54.1666ZM34.6667 40.6623V44.9999C34.6667 46.4106 35.6548 47.9407 37.3089 49.388C37.8942 49.9001 38.4878 50.3348 39.0001 50.6767C39.5124 50.3348 40.106 49.9001 40.6912 49.388C42.3453 47.9407 43.3334 46.4106 43.3334 44.9999V40.6623L39.0001 39.0373L34.6667 40.6623ZM40.3465 51.4857C40.349 51.487 40.3499 51.4874 40.3491 51.487L40.3467 51.4858L40.3465 51.4857Z" fill="url(#paint2_linear)"/>
<path fill-rule="evenodd" clip-rule="evenodd" d="M15 25.675C15.7279 25.675 16.4195 25.8306 17.0433 26.1103L36.1439 15.125C37.0439 14.625 38.1439 14.325 39.1439 14.325C40.2439 14.325 41.2439 14.625 42.1439 15.125L58.5439 24.625C57.3439 25.425 56.4439 26.6249 55.8439 28.0249L39.9438 18.825C39.6439 18.625 39.344 18.625 39.0441 18.625H39.0439C38.7439 18.625 38.4439 18.725 38.1439 18.825L19.8225 29.35C19.9382 29.772 20 30.2163 20 30.675C20 33.4365 17.7614 35.675 15 35.675C12.2386 35.675 10 33.4365 10 30.675C10 27.9136 12.2386 25.675 15 25.675ZM61.3492 25.954C61.866 25.7733 62.4215 25.675 63 25.675C65.7614 25.675 68 27.9136 68 30.675C68 32.5076 67.0142 34.1099 65.5439 34.9805V55.5249C65.5439 57.7249 64.3439 59.725 62.5439 60.825L46.1439 70.225C46.1439 68.725 45.6438 67.225 44.7438 66.125L60.3439 57.125C60.9439 56.825 61.2438 56.2249 61.2438 55.5249V35.3579C59.5846 34.7354 58.3442 33.2564 58.0611 31.4593C57.9844 31.1284 57.9438 30.7825 57.9438 30.4249C57.9438 29.4249 58.2439 28.525 58.8439 27.725C58.8939 27.675 58.9439 27.6 58.9939 27.525C59.0439 27.45 59.0939 27.375 59.1439 27.325C59.4439 27.025 59.6438 26.825 59.9438 26.625C59.9438 26.625 60.0439 26.6249 60.0439 26.5249C60.1057 26.4631 60.1675 26.4395 60.2528 26.4069C60.3056 26.3868 60.3674 26.3632 60.4438 26.325C60.4438 26.325 60.5439 26.325 60.5439 26.225C60.6439 26.175 60.7189 26.15 60.7939 26.1249C60.8689 26.0999 60.9439 26.0749 61.0439 26.0249C61.1403 26.0008 61.2425 25.9767 61.3492 25.954ZM43.8439 69.4305C43.9458 69.8284 44 70.2454 44 70.675C44 73.4365 41.7614 75.675 39 75.675C36.5102 75.675 34.4454 73.8552 34.0633 71.473L15.8439 60.9249C13.9439 59.8249 12.8439 57.825 12.8439 55.625V37.125C13.5439 37.325 14.3439 37.5249 15.0439 37.5249C15.7439 37.5249 16.4439 37.425 17.0439 37.225V55.625C17.0439 56.325 17.4438 56.925 17.9438 57.225L35.3263 67.2833C36.2398 66.2943 37.5476 65.675 39 65.675C41.3291 65.675 43.2862 67.2675 43.8419 69.423L43.8436 69.4247L43.8439 69.4249V69.4305Z" fill="url(#paint3_linear)"/>
<path d="M79.7 41.1381V41.3451C79.7 44.8641 83.012 46.8651 87.313 46.8651C91.407 46.8651 94.443 45.0251 94.443 41.5291C94.443 37.5961 90.211 36.1241 87.727 35.2501C85.588 34.5141 84.76 34.1461 84.76 33.4331C84.76 32.8351 85.381 32.2141 86.945 32.2141C88.808 32.2141 89.705 33.2491 89.705 34.1231V34.2841H94.19V34.0311C94.19 30.4661 91.039 28.2351 86.853 28.2351C82.759 28.2351 79.838 30.3741 79.838 33.8011C79.838 37.5041 83.587 38.8841 86.439 39.8271C88.601 40.5631 89.498 41.0231 89.498 41.7821C89.498 42.3111 88.946 42.8861 87.221 42.8861C85.128 42.8861 84.185 41.9431 84.185 41.2531V41.1381H79.7Z" fill="#0B0D11"/>
<path d="M108.664 28.5801V35.5491H101.35V28.5801H96.7733V46.5201H101.35V39.8501H108.664V46.5201H113.264V28.5801H108.664Z" fill="#0B0D11"/>
<path d="M116.323 28.5801V46.5201H120.923V28.5801H116.323Z" fill="#0B0D11"/>
<path d="M123.969 46.5201H137.746V42.0811H128.569V39.7811H136.113V35.6181H128.569V33.0421H137.746V28.5801H123.969V46.5201Z" fill="#0B0D11"/>
<path d="M140.262 46.5201H153.441V42.0811H144.839V28.5801H140.262V46.5201Z" fill="#0B0D11"/>
<path d="M155.409 46.5201H163.735C169.347 46.5201 172.222 42.4491 172.222 37.5501C172.222 32.6741 169.347 28.5801 163.735 28.5801H155.409V46.5201ZM163.39 33.0421C166.127 33.0421 167.576 34.8591 167.576 37.5501C167.576 40.2411 166.127 42.0811 163.39 42.0811H160.009V33.0421H163.39Z" fill="#0B0D11"/>
<path fill-rule="evenodd" clip-rule="evenodd" d="M128 51.865C130.3 51.865 132.1 53.665 132.1 55.865C132.1 57.365 131.3 58.565 130.1 59.365C130.183 59.4067 130.263 59.4485 130.338 59.4884C130.625 59.6398 130.863 59.765 131.1 59.765H131.1C131.2 59.765 131.6 59.765 131.8 59.4651L133.3 60.665C132.7 61.465 131.8 61.765 131.1 61.765C130.146 61.765 129.441 61.2672 128.751 60.7805C128.284 60.451 127.825 60.1266 127.3 59.9651C125.4 59.6651 123.9 57.9651 123.9 55.9651C123.9 53.6651 125.7 51.865 128 51.865ZM128 57.9651C129.2 57.9651 130.1 57.065 130.1 55.865C130.1 54.665 129.2 53.765 128 53.765C126.8 53.765 125.9 54.665 125.9 55.865C125.9 57.065 126.8 57.9651 128 57.9651ZM83.7 55.265H87.4V59.765H85.7999V59.0651C85.3999 59.6651 84.5999 59.9651 83.7999 59.9651C81.5999 59.9651 79.7 58.1651 79.7 55.9651C79.7 53.7651 81.5999 51.9651 83.7999 51.9651C85.0999 51.9651 86.3 52.5651 87.1 53.5651L85.4999 54.665C85.0999 54.165 84.4999 53.865 83.7999 53.865C82.5999 53.865 81.7 54.7651 81.7 55.9651C81.7 57.1651 82.5999 58.0651 83.7999 58.0651C84.4999 58.0651 85.0999 57.765 85.4999 57.165V56.9651H83.7V55.265ZM93.1001 52.0652C95.1001 52.0652 96.0001 53.3651 96.0001 54.8651C96.0001 55.9651 95.5001 56.9652 94.5001 57.4652L96.2001 59.7651H93.8L92.3 57.6652H91.3V59.7651H89.3V52.0652H93.1001ZM91.3 53.9652V55.9652H93.0001C93.8001 55.9652 94.1001 55.4652 94.1001 54.9652C94.1001 54.3652 93.8001 53.9652 93.0001 53.9652H91.3ZM105.4 59.7651L102.3 52.0652H100.3L97.2 59.7651H99.4L99.7999 58.6652H102.8L103.2 59.7651H105.4ZM100.4 56.8651L101.3 54.5652L102.1 56.8651H100.4ZM106.9 52.0652H110.3C112.4 52.0652 113.3 53.4652 113.3 55.0652C113.3 56.6652 112.3 58.0652 110.3 58.0652H108.9V59.8651H106.9V52.0652ZM108.9 53.8651V56.2651H110.2C111 56.2651 111.3 55.7652 111.3 55.0652C111.3 54.4652 111 53.8651 110.2 53.8651H108.9ZM122.2 59.7651V52.0652H120.2V55.0652H117V52.0652H115V59.7651H117V56.8651H120.2V59.7651H122.2ZM135.8 52.0652H133.8V59.7651H139.5V57.8651H135.8V52.0652Z" fill="#7F818C"/>
<defs>
<linearGradient id="paint0_linear" x1="18.1689" y1="25.7958" x2="69.2392" y2="77.1644" gradientUnits="userSpaceOnUse">
<stop stop-color="#47DEFF"/>
<stop offset="1" stop-color="#9847FF"/>
</linearGradient>
<linearGradient id="paint1_linear" x1="18.1689" y1="25.7958" x2="69.2392" y2="77.1644" gradientUnits="userSpaceOnUse">
<stop stop-color="#47DEFF"/>
<stop offset="1" stop-color="#9847FF"/>
</linearGradient>
<linearGradient id="paint2_linear" x1="30.0141" y1="35.1839" x2="56.9147" y2="56.8301" gradientUnits="userSpaceOnUse">
<stop stop-color="#47DEFF"/>
<stop offset="1" stop-color="#9847FF"/>
</linearGradient>
<linearGradient id="paint3_linear" x1="3.4646" y1="12.152" x2="95.5015" y2="99.6715" gradientUnits="userSpaceOnUse">
<stop stop-color="#47DEFF"/>
<stop offset="1" stop-color="#9847FF"/>
</linearGradient>
</defs>
</svg>
