<svg width="454" height="487" viewBox="0 0 454 487" fill="none" xmlns="http://www.w3.org/2000/svg">
<rect width="454" height="487" fill="#E5E5E5"/>
<g id="Shield / Desktop" clip-path="url(#clip0)">
<rect width="1440" height="2380" transform="translate(-755 -160)" fill="#FCFCFC"/>
<g id="cover">
<mask id="mask0" mask-type="alpha" maskUnits="userSpaceOnUse" x="-533" y="50" width="996" height="400">
<rect id="cover_2" x="-533" y="50" width="996" height="400" rx="20" fill="#0B0D11"/>
</mask>
<g mask="url(#mask0)">
<rect id="cover_3" x="-533" y="50" width="996" height="400" rx="20" fill="#0B0D11"/>
<g id="Ellipse 1" filter="url(#filter0_f)">
<circle cx="410" cy="20" r="246" fill="#56C4FF"/>
</g>
<g id="Ellipse 5" filter="url(#filter1_f)">
<circle cx="338" cy="498" r="278" fill="#6B9CFF"/>
</g>
</g>
</g>
<g id="sections / content-image">
<rect width="996" height="436" transform="translate(-533 450)" fill="#FCFCFC"/>
</g>
<g id="Group 656">
<g id="Group 657">
<g id="Group">
<g id="Group_2">
<g id="Group_3">
<path id="Vector" d="M61.8527 386.703C65.14 386.703 68.2543 386.011 70.8496 384.626L117.91 357.284C120.333 355.9 121.717 353.996 121.717 351.92C121.717 349.843 120.333 347.94 117.91 346.555L70.6766 319.213C65.8321 316.445 57.7002 316.445 52.8557 319.213L5.6219 346.555C3.19965 347.94 1.81552 349.843 1.81552 351.92C1.81552 353.996 3.19965 355.9 5.6219 357.284L52.8557 384.626C55.278 386.011 58.5653 386.703 61.8527 386.703ZM70.3305 383.934C65.659 386.703 58.0463 386.703 53.3748 383.934L6.14096 356.592C3.89173 355.381 2.68061 353.65 2.68061 351.92C2.68061 350.189 3.89173 348.459 6.14096 347.247L53.3748 319.906C58.0463 317.137 65.659 317.137 70.3305 319.906L117.564 347.247C119.814 348.459 121.025 350.189 121.025 351.92C121.025 353.65 119.814 355.381 117.564 356.592L70.3305 383.934Z" fill="url(#paint0_linear)"/>
<g id="Group_4">
<g id="Vector_2" filter="url(#filter2_b)">
<path d="M0.43087 341.364V325.097L3.37216 323.367C4.23725 328.385 10.1199 331.673 15.1374 332.365L48.8758 352.439L63.5823 357.804L110.989 333.403L109.951 332.711C113.93 330.808 116.18 326.482 118.256 322.501L121.37 324.405L123.273 325.097V341.537C123.273 343.613 121.889 345.69 119.121 347.247L71.8872 374.589C66.3506 377.704 57.3537 377.704 51.8171 374.589L4.5833 347.247C1.81501 345.69 0.43087 343.613 0.43087 341.537C0.257851 341.537 0.43087 341.537 0.43087 341.364Z" fill="#50CEFF" fill-opacity="0.4"/>
</g>
<g id="Group_5">
<g id="Group_6">
<path id="Vector_3" d="M0.43087 327.001V316.272L3.37216 314.541C4.23725 319.56 10.1199 322.847 15.1374 323.54L48.8758 343.613L63.5823 348.978L110.989 324.578L109.951 323.886C113.93 321.982 116.18 317.656 118.256 313.676L121.37 315.579L123.273 316.272V327.174C123.273 329.25 121.889 331.327 119.121 332.884L71.8872 360.226C66.3506 363.341 57.3537 363.341 51.8171 360.226L4.5833 332.884C1.81501 331.327 0.43087 329.25 0.43087 327.174C0.257851 327.174 0.43087 327.174 0.43087 327.001Z" fill="url(#paint1_linear)"/>
<g id="Group_7">
<path id="Vector_4" d="M71.8872 349.324L119.121 322.155C124.658 319.04 124.658 313.676 119.121 310.561L71.8872 283.219C66.3506 280.104 57.3537 280.104 51.8171 283.219L4.58327 310.561C-0.953285 313.676 -0.953285 319.04 4.58327 322.155L51.8171 349.497C57.3537 352.612 66.3506 352.612 71.8872 349.324Z" fill="#D8E5FF"/>
</g>
<g id="Group_8">
<path id="Vector_5" d="M61.8539 344.479C64.7952 344.479 67.7365 343.787 69.9857 342.575L106.838 321.117C109.088 319.906 110.299 318.175 110.299 316.272C110.299 314.368 109.088 312.638 106.838 311.426L69.9857 290.141C65.4872 287.545 58.3935 287.545 53.8951 290.141L17.0423 311.426C14.793 312.638 13.5819 314.368 13.5819 316.272C13.5819 318.175 14.793 319.906 17.0423 321.117L53.8951 342.402C55.9713 343.787 58.9126 344.479 61.8539 344.479ZM61.8539 288.93C64.6221 288.93 67.3904 289.622 69.4666 290.833L106.319 312.118C108.223 313.33 109.434 314.714 109.434 316.272C109.434 317.829 108.396 319.386 106.319 320.425L69.4666 341.71C65.3142 344.133 58.3935 344.133 54.2411 341.71L17.3883 320.425C15.4851 319.213 14.274 317.829 14.274 316.272C14.274 314.714 15.3121 313.157 17.3883 312.118L54.2411 290.833C56.3173 289.622 59.0856 288.93 61.8539 288.93Z" fill="#9DB6E9"/>
</g>
<g id="Group_9">
<path id="Vector_6" d="M4.41111 322.155L51.6449 349.497C57.1815 352.612 66.1784 352.612 71.715 349.497L119.122 322.155C121.544 320.598 122.928 318.867 123.274 316.964C123.62 319.213 122.236 321.636 119.122 323.367L71.888 350.709C66.3514 353.823 57.3545 353.823 51.818 350.709L4.58413 323.367C1.46981 321.636 0.0856628 319.213 0.431702 316.964C0.604713 318.867 1.98886 320.598 4.41111 322.155Z" fill="white"/>
</g>
</g>
</g>
</g>
</g>
</g>
</g>
<g id="Group_10">
<g id="Group_11">
<g id="Group_12">
<path id="Vector_7" d="M391.874 299.82C395.161 299.82 398.276 299.128 400.871 297.743L447.932 270.402C450.354 269.017 451.738 267.114 451.738 265.037C451.738 262.96 450.354 261.057 447.932 259.672L400.698 232.331C395.854 229.562 387.722 229.562 382.877 232.331L335.643 259.672C333.221 261.057 331.837 262.96 331.837 265.037C331.837 267.114 333.221 269.017 335.643 270.402L382.877 297.743C385.299 299.128 388.587 299.82 391.874 299.82ZM400.352 297.051C395.681 299.82 388.068 299.82 383.396 297.051L336.162 269.709C333.913 268.498 332.702 266.767 332.702 265.037C332.702 263.306 333.913 261.576 336.162 260.365L383.396 233.023C388.068 230.254 395.681 230.254 400.352 233.023L447.586 260.365C449.835 261.576 451.046 263.306 451.046 265.037C451.046 266.767 449.835 268.498 447.586 269.709L400.352 297.051Z" fill="url(#paint2_linear)"/>
<path id="Vector_8" d="M391.874 309.82C395.161 309.82 398.276 309.128 400.871 307.743L447.932 280.402C450.354 279.017 451.738 277.114 451.738 275.037C451.738 272.96 450.354 271.057 447.932 269.672L400.698 242.331C395.854 239.562 387.722 239.562 382.877 242.331L335.643 269.672C333.221 271.057 331.837 272.96 331.837 275.037C331.837 277.114 333.221 279.017 335.643 280.402L382.877 307.743C385.299 309.128 388.587 309.82 391.874 309.82ZM400.352 307.051C395.681 309.82 388.068 309.82 383.396 307.051L336.162 279.709C333.913 278.498 332.702 276.767 332.702 275.037C332.702 273.306 333.913 271.576 336.162 270.365L383.396 243.023C388.068 240.254 395.681 240.254 400.352 243.023L447.586 270.365C449.835 271.576 451.046 273.306 451.046 275.037C451.046 276.767 449.835 278.498 447.586 279.709L400.352 307.051Z" fill="url(#paint3_linear)"/>
<path id="Vector_9" d="M391.874 319.82C395.161 319.82 398.276 319.128 400.871 317.743L447.932 290.402C450.354 289.017 451.738 287.114 451.738 285.037C451.738 282.96 450.354 281.057 447.932 279.672L400.698 252.331C395.854 249.562 387.722 249.562 382.877 252.331L335.643 279.672C333.221 281.057 331.837 282.96 331.837 285.037C331.837 287.114 333.221 289.017 335.643 290.402L382.877 317.743C385.299 319.128 388.587 319.82 391.874 319.82ZM400.352 317.051C395.681 319.82 388.068 319.82 383.396 317.051L336.162 289.709C333.913 288.498 332.702 286.767 332.702 285.037C332.702 283.306 333.913 281.576 336.162 280.365L383.396 253.023C388.068 250.254 395.681 250.254 400.352 253.023L447.586 280.365C449.835 281.576 451.046 283.306 451.046 285.037C451.046 286.767 449.835 288.498 447.586 289.709L400.352 317.051Z" fill="url(#paint4_linear)"/>
<g id="Group_13">
<g id="Vector_10" filter="url(#filter3_b)">
<path d="M330.452 254.481V238.214L333.394 236.484C334.259 241.502 340.141 244.79 345.159 245.482L378.897 265.556L393.604 270.921L441.011 246.521L439.973 245.828C443.952 243.925 446.201 239.599 448.277 235.618L451.392 237.522L453.295 238.214V254.654C453.295 256.731 451.911 258.807 449.142 260.365L401.909 287.707C396.372 290.821 387.375 290.821 381.839 287.707L334.605 260.365C331.836 258.807 330.452 256.731 330.452 254.654C330.279 254.654 330.452 254.654 330.452 254.481Z" fill="#50CEFF" fill-opacity="0.4"/>
</g>
<g id="Group_14">
<g id="Group_15">
<path id="Vector_11" d="M330.452 240.118V229.389L333.394 227.658C334.259 232.677 340.141 235.965 345.159 236.657L378.897 256.731L393.604 262.095L441.011 237.695L439.973 237.003C443.952 235.099 446.201 230.773 448.277 226.793L451.392 228.697L453.295 229.389V240.291C453.295 242.367 451.911 244.444 449.142 246.002L401.909 273.343C396.372 276.458 387.375 276.458 381.839 273.343L334.605 246.002C331.836 244.444 330.452 242.367 330.452 240.291C330.279 240.291 330.452 240.291 330.452 240.118Z" fill="url(#paint5_linear)"/>
<g id="Group_16">
<path id="Vector_12" d="M401.909 262.441L449.142 235.272C454.679 232.157 454.679 226.793 449.142 223.678L401.909 196.336C396.372 193.221 387.375 193.221 381.839 196.336L334.605 223.678C329.068 226.793 329.068 232.157 334.605 235.272L381.839 262.614C387.375 265.729 396.372 265.729 401.909 262.441Z" fill="#D8E5FF"/>
</g>
<g id="Group_17">
<path id="Vector_13" d="M391.875 257.596C394.817 257.596 397.758 256.904 400.007 255.692L436.86 234.234C439.109 233.023 440.32 231.292 440.32 229.389C440.32 227.485 439.109 225.755 436.86 224.543L400.007 203.258C395.509 200.662 388.415 200.662 383.917 203.258L347.064 224.543C344.815 225.755 343.603 227.485 343.603 229.389C343.603 231.292 344.815 233.023 347.064 234.234L383.917 255.519C385.993 256.904 388.934 257.596 391.875 257.596ZM391.875 202.047C394.644 202.047 397.412 202.739 399.488 203.95L436.341 225.236C438.244 226.447 439.455 227.831 439.455 229.389C439.455 230.946 438.417 232.504 436.341 233.542L399.488 254.827C395.336 257.25 388.415 257.25 384.263 254.827L347.41 233.542C345.507 232.331 344.295 230.946 344.295 229.389C344.295 227.831 345.334 226.274 347.41 225.236L384.263 203.95C386.339 202.739 389.107 202.047 391.875 202.047Z" fill="#9DB6E9"/>
</g>
<g id="Group_18">
<path id="Vector_14" d="M334.433 235.272L381.666 262.614C387.203 265.729 396.2 265.729 401.736 262.614L449.143 235.272C451.566 233.715 452.95 231.984 453.296 230.081C453.642 232.331 452.258 234.753 449.143 236.484L401.909 263.826C396.373 266.941 387.376 266.941 381.839 263.826L334.606 236.484C331.491 234.753 330.107 232.331 330.453 230.081C330.626 231.984 332.01 233.715 334.433 235.272Z" fill="white"/>
</g>
</g>
</g>
</g>
</g>
</g>
</g>
<g id="Group_19">
<g id="Group_20">
<g id="Group_21">
<path id="Vector_15" d="M223.874 486.82C227.161 486.82 230.276 486.128 232.871 484.743L279.932 457.402C282.354 456.017 283.738 454.114 283.738 452.037C283.738 449.96 282.354 448.057 279.932 446.672L232.698 419.331C227.854 416.562 219.722 416.562 214.877 419.331L167.643 446.672C165.221 448.057 163.837 449.96 163.837 452.037C163.837 454.114 165.221 456.017 167.643 457.402L214.877 484.743C217.299 486.128 220.587 486.82 223.874 486.82ZM232.352 484.051C227.681 486.82 220.068 486.82 215.396 484.051L168.162 456.709C165.913 455.498 164.702 453.767 164.702 452.037C164.702 450.306 165.913 448.576 168.162 447.365L215.396 420.023C220.068 417.254 227.681 417.254 232.352 420.023L279.586 447.365C281.835 448.576 283.046 450.306 283.046 452.037C283.046 453.767 281.835 455.498 279.586 456.709L232.352 484.051Z" fill="url(#paint6_linear)"/>
<g id="Group_22">
<g id="Vector_16" filter="url(#filter4_b)">
<path d="M162.452 441.481V425.214L165.394 423.484C166.259 428.502 172.141 431.79 177.159 432.482L210.897 452.556L225.604 457.921L273.011 433.521L271.973 432.828C275.952 430.925 278.201 426.599 280.277 422.619L283.392 424.522L285.295 425.214V441.654C285.295 443.731 283.911 445.807 281.142 447.365L233.909 474.707C228.372 477.821 219.375 477.821 213.839 474.707L166.605 447.365C163.836 445.807 162.452 443.731 162.452 441.654C162.279 441.654 162.452 441.654 162.452 441.481Z" fill="#50CEFF" fill-opacity="0.4"/>
</g>
<g id="Group_23">
<g id="Group_24">
<path id="Vector_17" d="M162.452 427.118V416.389L165.394 414.658C166.259 419.677 172.141 422.965 177.159 423.657L210.897 443.731L225.604 449.095L273.011 424.695L271.973 424.003C275.952 422.099 278.201 417.773 280.277 413.793L283.392 415.697L285.295 416.389V427.291C285.295 429.367 283.911 431.444 281.142 433.002L233.909 460.343C228.372 463.458 219.375 463.458 213.839 460.343L166.605 433.002C163.836 431.444 162.452 429.367 162.452 427.291C162.279 427.291 162.452 427.291 162.452 427.118Z" fill="url(#paint7_linear)"/>
<g id="Group_25">
<path id="Vector_18" d="M233.909 449.441L281.142 422.272C286.679 419.157 286.679 413.793 281.142 410.678L233.909 383.336C228.372 380.221 219.375 380.221 213.839 383.336L166.605 410.678C161.068 413.793 161.068 419.157 166.605 422.272L213.839 449.614C219.375 452.729 228.372 452.729 233.909 449.441Z" fill="#D8E5FF"/>
</g>
<g id="Group_26">
<path id="Vector_19" d="M223.875 444.596C226.817 444.596 229.758 443.904 232.007 442.692L268.86 421.234C271.109 420.023 272.32 418.292 272.32 416.389C272.32 414.485 271.109 412.755 268.86 411.543L232.007 390.258C227.509 387.662 220.415 387.662 215.917 390.258L179.064 411.543C176.815 412.755 175.603 414.485 175.603 416.389C175.603 418.292 176.815 420.023 179.064 421.234L215.917 442.519C217.993 443.904 220.934 444.596 223.875 444.596ZM223.875 389.047C226.644 389.047 229.412 389.739 231.488 390.95L268.341 412.236C270.244 413.447 271.455 414.831 271.455 416.389C271.455 417.946 270.417 419.504 268.341 420.542L231.488 441.827C227.336 444.25 220.415 444.25 216.263 441.827L179.41 420.542C177.507 419.331 176.295 417.946 176.295 416.389C176.295 414.831 177.334 413.274 179.41 412.236L216.263 390.95C218.339 389.739 221.107 389.047 223.875 389.047Z" fill="#9DB6E9"/>
</g>
<g id="Group_27">
<path id="Vector_20" d="M166.433 422.272L213.666 449.614C219.203 452.729 228.2 452.729 233.736 449.614L281.143 422.272C283.566 420.715 284.95 418.984 285.296 417.081C285.642 419.331 284.258 421.753 281.143 423.484L233.909 450.826C228.373 453.941 219.376 453.941 213.839 450.826L166.606 423.484C163.491 421.753 162.107 419.331 162.453 417.081C162.626 418.984 164.01 420.715 166.433 422.272Z" fill="white"/>
</g>
</g>
</g>
</g>
</g>
</g>
</g>
<path id="Vector_21" d="M241.348 106.462L236.584 103.714L236.95 101.515L241.715 104.264L241.348 106.462Z" fill="#4DCAFF"/>
<path id="Vector_22" d="M248.133 110.494L243.369 107.745L243.736 105.546L248.5 108.295L248.133 110.494Z" fill="#4DCAFF"/>
<path id="Vector_23" d="M234.4 102.614L223.955 96.5674L224.322 94.3685L234.766 100.415L234.4 102.614Z" fill="#4DCAFF"/>
<path id="Vector_24" opacity="0.4" d="M301.463 166.199C302.929 164.733 303.112 162.351 301.646 160.885C300.18 159.419 297.798 159.236 296.332 160.702C294.866 162.168 294.683 164.55 296.149 166.016C297.615 167.482 299.997 167.482 301.463 166.199Z" fill="#4DCAFF"/>
<path id="Vector_25" d="M344.877 162.9C346.343 161.434 346.526 159.052 345.06 157.586C343.594 156.12 341.212 155.937 339.746 157.403C338.28 158.869 338.097 161.251 339.563 162.717C341.029 164.183 343.411 164.366 344.877 162.9Z" fill="#4DCAFF"/>
<path id="Vector_26" opacity="0.4" d="M334.25 104.63C335.899 103.164 335.899 100.598 334.433 98.9493C332.967 97.3002 330.402 97.3002 328.753 98.7661C327.104 100.232 327.104 102.797 328.57 104.447C330.036 106.096 332.601 106.096 334.25 104.63Z" fill="#4DCAFF"/>
<path id="Vector_27" opacity="0.4" d="M329.682 115.991C330.598 115.074 330.781 113.609 329.865 112.509C328.949 111.593 327.483 111.41 326.383 112.326C325.467 113.242 325.284 114.708 326.2 115.807C327.116 116.907 328.765 116.907 329.682 115.991Z" fill="#4DCAFF"/>
<path id="Vector_28" opacity="0.8" d="M324.743 110.127C325.293 109.578 325.476 108.478 324.743 107.928C324.193 107.379 323.094 107.195 322.544 107.928C321.994 108.661 321.811 109.578 322.544 110.127C323.094 110.677 324.01 110.677 324.743 110.127Z" fill="#4DCAFF"/>
<path id="Vector_29" opacity="0.8" d="M334.985 144.576C335.535 144.027 335.718 142.927 334.985 142.377C334.252 141.828 333.336 141.645 332.786 142.377C332.236 143.11 332.053 144.027 332.786 144.576C333.336 145.126 334.435 145.126 334.985 144.576Z" fill="#4DCAFF"/>
<path id="Vector_30" opacity="0.4" d="M313.197 100.049C313.38 99.8657 313.38 99.4992 313.197 99.316C313.013 99.1327 312.647 99.1327 312.464 99.316C312.28 99.4992 312.28 99.8657 312.464 100.049C312.647 100.232 312.83 100.232 313.197 100.049Z" fill="#4DCAFF"/>
<path id="Vector_31" opacity="0.8" d="M315.941 119.656C316.124 119.472 316.124 119.106 315.941 118.923C315.757 118.739 315.391 118.739 315.208 118.923C315.025 119.106 315.025 119.472 315.208 119.656C315.391 119.839 315.757 119.839 315.941 119.656Z" fill="#4DCAFF"/>
<path id="Vector_32" opacity="0.8" d="M321.982 156.853C322.165 156.67 322.165 156.304 321.982 156.12C321.798 155.937 321.432 155.937 321.249 156.12C321.066 156.304 321.066 156.67 321.249 156.853C321.615 157.037 321.798 157.037 321.982 156.853Z" fill="#4DCAFF"/>
<path id="Vector_33" opacity="0.8" d="M317.753 150.807C317.936 150.623 317.936 150.257 317.753 150.074C317.57 149.89 317.203 149.89 317.02 150.074C316.837 150.257 316.837 150.623 317.02 150.807C317.203 150.99 317.57 150.99 317.753 150.807Z" fill="#4DCAFF"/>
<path id="Vector_34" opacity="0.4" d="M301.648 122.221C304.031 120.022 304.031 116.357 301.832 114.158C299.633 111.776 295.968 111.776 293.769 113.975C291.387 116.174 291.387 119.839 293.586 122.038C295.602 124.237 299.266 124.42 301.648 122.221Z" fill="#4DCAFF"/>
<path id="Vector_35" d="M270.678 133.399C271.778 132.299 271.961 130.467 270.861 129.367C269.762 128.268 267.93 128.085 266.83 129.184C265.731 130.284 265.547 132.116 266.647 133.215C267.746 134.498 269.579 134.498 270.678 133.399Z" fill="#4DCAFF"/>
<path id="Vector_36" opacity="0.4" d="M320.328 134.132C321.948 134.132 323.26 132.819 323.26 131.2C323.26 129.581 321.948 128.268 320.328 128.268C318.709 128.268 317.396 129.581 317.396 131.2C317.396 132.819 318.709 134.132 320.328 134.132Z" fill="#4DCAFF"/>
<path id="Vector_37" opacity="0.4" d="M301.651 86.1224C302.75 85.023 302.933 83.1906 301.834 82.0912C300.735 80.9917 298.902 80.8085 297.803 81.9079C296.703 83.0073 296.52 84.8398 297.62 85.9392C298.719 87.2219 300.551 87.2219 301.651 86.1224Z" fill="#4DCAFF"/>
<path id="Vector_38" opacity="0.4" d="M265.543 106.829C266.643 105.729 266.826 103.897 265.727 102.797C264.627 101.698 262.795 101.515 261.695 102.614C260.596 103.714 260.413 105.546 261.512 106.646C262.612 107.745 264.444 107.745 265.543 106.829Z" fill="#4DCAFF"/>
<path id="Vector_39" opacity="0.4" d="M363.571 115.624C364.67 114.525 364.853 112.692 363.754 111.593C362.655 110.494 360.822 110.31 359.723 111.41C358.623 112.509 358.44 114.342 359.539 115.441C360.639 116.724 362.471 116.724 363.571 115.624Z" fill="#4DCAFF"/>
<path id="Vector_40" opacity="0.4" d="M342.868 65.5998C343.967 64.5003 344.15 62.6679 343.051 61.5685C341.951 60.469 340.119 60.2858 339.02 61.3852C337.92 62.4847 337.737 64.3171 338.836 65.4165C339.936 66.6992 341.768 66.6992 342.868 65.5998Z" fill="#4DCAFF"/>
<path id="Vector_41" d="M380.613 70.9136C381.163 70.3639 381.163 69.4477 380.613 68.898C380.064 68.3483 379.148 68.3483 378.598 68.898C378.048 69.4477 378.048 70.3639 378.598 70.9136C379.148 71.4633 380.064 71.4633 380.613 70.9136Z" fill="#4DCAFF"/>
<path id="Vector_42" opacity="0.4" d="M309.895 156.487C310.628 155.937 310.628 154.838 309.895 154.105C309.162 153.372 308.246 153.372 307.513 154.105C306.78 154.654 306.78 155.754 307.513 156.487C308.246 157.036 309.345 157.22 309.895 156.487Z" fill="#4DCAFF"/>
<path id="Vector_43" d="M306.764 109.027C307.497 108.478 307.497 107.378 306.764 106.645C306.214 105.912 305.115 105.912 304.382 106.645C303.649 107.195 303.649 108.295 304.382 109.027C304.931 109.76 306.031 109.76 306.764 109.027Z" fill="#4DCAFF"/>
<path id="Vector_44" d="M285.332 108.478C285.699 108.111 285.882 107.378 285.332 106.829C284.966 106.462 284.233 106.279 283.683 106.829C283.316 107.195 283.133 107.928 283.683 108.478C284.049 108.844 284.782 108.844 285.332 108.478Z" fill="#4DCAFF"/>
<path id="Vector_45" d="M282.024 108.295C282.757 107.745 282.757 106.645 282.024 105.913C281.474 105.18 280.374 105.18 279.642 105.913C278.909 106.462 278.909 107.562 279.642 108.295C280.374 109.028 281.291 109.028 282.024 108.295Z" fill="#4DCAFF"/>
<path id="Vector_46" d="M281.487 112.326C281.854 111.959 281.854 111.41 281.487 111.043C281.121 110.677 280.571 110.677 280.205 111.043C279.838 111.41 279.838 111.959 280.205 112.326C280.571 112.509 281.121 112.692 281.487 112.326Z" fill="#4DCAFF"/>
<path id="Vector_47" opacity="0.4" d="M297.235 139.262C297.785 138.896 297.785 137.98 297.235 137.613C296.869 137.063 295.953 137.063 295.586 137.613C295.036 137.98 295.036 138.896 295.586 139.262C295.953 139.629 296.686 139.629 297.235 139.262Z" fill="#4DCAFF"/>
<path id="Vector_48" opacity="0.4" d="M331.698 144.027C332.248 143.66 332.248 142.744 331.698 142.377C331.332 141.828 330.415 141.828 330.049 142.377C329.499 142.744 329.499 143.66 330.049 144.027C330.415 144.576 331.148 144.576 331.698 144.027Z" fill="#4DCAFF"/>
<path id="Vector_49" d="M304.561 141.095C305.66 139.995 305.844 138.163 304.744 137.063C303.645 135.964 301.812 135.781 300.713 136.88C299.613 137.98 299.43 139.812 300.53 140.911C301.446 142.194 303.462 142.194 304.561 141.095Z" fill="#4DCAFF"/>
<g id="Vector_50" filter="url(#filter5_b)">
<path d="M144.783 264.599C142.034 273.394 127.925 290.619 118.946 287.87C109.967 285.122 110.15 263.682 112.716 254.887C115.464 246.091 124.626 240.961 133.605 243.709C142.401 246.458 147.348 255.803 144.783 264.599Z" fill="white" fill-opacity="0.9"/>
</g>
<path id="Vector_51" d="M127.75 243.893C132.331 243.526 138.378 246.275 140.943 250.123C143.692 253.971 142.043 257.269 137.462 257.819C132.881 258.185 126.834 255.437 124.269 251.589C121.52 247.741 122.986 244.259 127.75 243.893Z" fill="#251C72"/>
<path id="Vector_52" d="M127.75 243.893C132.331 243.526 138.378 246.275 140.943 250.123C143.692 253.971 142.043 257.269 137.462 257.819C132.881 258.185 126.834 255.437 124.269 251.589C121.52 247.741 122.986 244.259 127.75 243.893Z" fill="url(#paint8_linear)"/>
<path id="Vector_53" d="M122.949 248.031C123.682 247.298 124.965 246.931 126.431 246.748C131.012 246.381 137.059 249.13 139.624 252.978C140.357 254.077 140.907 255.36 140.907 256.276C142.556 254.81 142.739 252.428 140.907 249.863C138.158 246.015 132.294 243.266 127.713 243.633C124.598 243.999 122.949 245.832 122.949 248.031Z" fill="#3469C5"/>
<g id="Vector_54" filter="url(#filter6_d)">
<path d="M143.328 239.312C142.595 239.312 142.045 239.861 142.045 240.594C142.045 241.327 142.595 241.877 143.328 241.877C144.061 241.877 144.61 241.327 144.61 240.594C144.61 240.045 144.061 239.312 143.328 239.312Z" fill="#4DCAFF"/>
</g>
<g id="Vector_55" filter="url(#filter7_d)">
<path d="M130.862 230.15C129.03 230.15 127.564 231.616 127.381 233.448C127.381 235.28 128.847 236.746 130.679 236.93C132.512 236.93 133.977 235.464 134.161 233.631C134.161 231.799 132.695 230.15 130.862 230.15Z" fill="#4DCAFF"/>
</g>
<g id="Vector_56" filter="url(#filter8_d)">
<path d="M149.918 222.637C148.819 222.637 148.086 223.37 148.086 224.47C148.086 225.569 148.819 226.302 149.918 226.302C151.018 226.302 151.751 225.569 151.751 224.47C151.751 223.37 150.835 222.637 149.918 222.637Z" fill="#4DCAFF"/>
</g>
<g id="Vector_57" filter="url(#filter9_d)">
<path d="M142.39 224.103C141.657 224.103 141.107 224.652 141.107 225.385C141.107 226.118 141.657 226.668 142.39 226.668C143.123 226.668 143.673 226.118 143.673 225.385C143.673 224.836 143.123 224.103 142.39 224.103Z" fill="#4DCAFF"/>
</g>
<g id="Vector_58" filter="url(#filter10_d)">
<path d="M143.865 221.354C143.316 221.354 142.949 221.721 142.949 222.27C142.949 222.82 143.316 223.187 143.865 223.187C144.415 223.187 144.782 222.82 144.782 222.27C144.782 221.721 144.232 221.354 143.865 221.354Z" fill="#4DCAFF"/>
</g>
<g id="Vector_59" filter="url(#filter11_d)">
<path d="M133.057 245.909C131.958 245.909 131.225 246.642 131.225 247.741C131.225 248.841 131.958 249.574 133.057 249.574C134.156 249.574 134.889 248.841 134.889 247.741C134.889 246.642 134.156 245.909 133.057 245.909Z" fill="#4DCAFF"/>
</g>
<g id="Vector_60" filter="url(#filter12_d)">
<path d="M138.751 245.176C137.285 245.176 136.002 246.275 136.002 247.925C136.002 249.39 137.101 250.673 138.751 250.673C140.216 250.673 141.499 249.574 141.499 247.925C141.499 246.275 140.216 245.176 138.751 245.176Z" fill="#4DCAFF"/>
</g>
<g id="Vector_61" filter="url(#filter13_b)">
<path d="M168.438 234.181C182.302 234.181 193.542 222.942 193.542 209.077C193.542 195.213 182.302 183.973 168.438 183.973C154.573 183.973 143.334 195.213 143.334 209.077C143.334 222.942 154.573 234.181 168.438 234.181Z" fill="white" fill-opacity="0.9"/>
</g>
<ellipse id="Ellipse 129" cx="227.5" cy="339.5" rx="64.5" ry="33.5" fill="url(#paint9_linear)"/>
<g id="Vector_62" filter="url(#filter14_b)">
<path d="M293.773 254.704C293.773 303.446 264.638 343.209 228.906 343.209C192.991 343.209 164.039 303.629 164.039 254.704C164.039 205.962 193.174 191.303 228.906 191.303C264.821 191.12 293.773 205.779 293.773 254.704Z" fill="white" fill-opacity="0.9"/>
</g>
<g id="Group 664">
<path id="Vector_63" d="M211.141 269.739L194.01 251.394L176.878 250C176.878 250 174.136 273.201 194.01 297.797C213.884 296.133 211.141 269.739 211.141 269.739Z" fill="url(#paint10_linear)"/>
<path id="Vector_64" d="M176.879 250L173.057 252.203L190.143 253.597L194.01 251.394L176.879 250Z" fill="url(#paint11_linear)"/>
<path id="Union" fill-rule="evenodd" clip-rule="evenodd" d="M176.878 250L176.879 250L194.01 251.394L194.009 251.394L211.14 269.739C211.14 269.739 213.883 296.133 194.009 297.797C178.026 278.017 176.67 259.139 176.752 252.505L173.057 252.203L176.877 250.001C176.877 250 176.877 250 176.877 250L176.878 250Z" fill="url(#paint12_linear)"/>
<path id="Vector_65" d="M207.272 271.987L190.14 253.597L183.126 252.878L173.054 252.203C173.054 252.203 170.311 275.405 190.185 300C210.015 298.336 207.272 271.987 207.272 271.987Z" fill="url(#paint13_linear)"/>
</g>
<g id="Vector_66" filter="url(#filter15_b)">
<path d="M228.891 243.16C253.382 243.16 273.235 231.674 273.235 217.506C273.235 203.338 253.382 191.853 228.891 191.853C204.4 191.853 184.547 203.338 184.547 217.506C184.547 231.674 204.4 243.16 228.891 243.16Z" fill="url(#paint14_linear)"/>
</g>
<g id="Vector_67" filter="url(#filter16_b)">
<path d="M197.585 206.145C214.81 196.067 243.029 196.067 260.253 206.145C267.4 210.36 271.614 215.49 272.897 220.804C274.729 213.108 270.515 205.229 260.253 199.365C243.029 189.287 214.81 189.287 197.585 199.365C187.507 205.229 183.292 213.291 184.942 220.804C186.224 215.49 190.439 210.36 197.585 206.145Z" fill="#2958B8" fill-opacity="0.4"/>
</g>
<g id="Vector_68" filter="url(#filter17_b)">
<path d="M231.47 222.637C268.104 222.637 297.803 192.938 297.803 156.304C297.803 119.669 268.104 89.9709 231.47 89.9709C194.835 89.9709 165.137 119.669 165.137 156.304C165.137 192.938 194.835 222.637 231.47 222.637Z" fill="white" fill-opacity="0.9"/>
</g>
<path id="Vector_69" d="M210.749 187.819C209.1 200.829 199.205 204.86 188.76 196.981C178.316 188.918 171.169 172.06 173.002 158.867C174.651 145.857 184.546 141.825 194.99 149.705C205.435 157.767 212.398 174.809 210.749 187.819Z" fill="#251C72"/>
<path id="Vector_70" opacity="0.5" d="M210.749 187.819C209.1 200.829 199.205 204.86 188.76 196.981C178.316 188.918 171.169 172.06 173.002 158.867C174.651 145.857 184.546 141.825 194.99 149.705C205.435 157.767 212.398 174.809 210.749 187.819Z" fill="#24272E"/>
<path id="Vector_71" d="M202.138 176.46C201.588 181.225 197.923 182.691 194.075 179.759C190.227 176.827 187.662 170.597 188.395 166.016C188.944 161.252 192.609 159.786 196.457 162.717C200.122 165.466 202.687 171.696 202.138 176.46Z" fill="url(#paint15_linear)"/>
<path id="Vector_72" d="M193.891 194.968C183.446 186.905 176.3 170.047 178.132 156.854C178.865 151.54 180.881 147.692 183.813 145.676C178.316 146.226 174.284 150.807 173.185 158.869C171.536 171.879 178.499 188.921 188.944 196.983C195.174 201.748 201.037 202.114 205.252 199.182C201.77 199.365 197.739 198.083 193.891 194.968Z" fill="#0B0D11"/>
<g id="Vector_73" filter="url(#filter18_b)">
<path d="M300.186 296.666C314.05 296.666 325.29 285.426 325.29 271.562C325.29 257.697 314.05 246.458 300.186 246.458C286.321 246.458 275.082 257.697 275.082 271.562C275.082 285.426 286.321 296.666 300.186 296.666Z" fill="white" fill-opacity="0.9"/>
</g>
<path id="Vector_74" d="M324.375 271.928C324.375 279.075 319.427 287.687 313.197 291.169C306.967 294.65 302.02 291.902 302.02 284.755C302.02 277.609 306.967 268.996 313.197 265.515C319.427 262.033 324.375 264.782 324.375 271.928Z" fill="#251C72"/>
<g id="Vector_75" filter="url(#filter19_d)">
<path d="M324.375 271.928C324.375 279.075 319.427 287.687 313.197 291.169C306.967 294.65 302.02 291.902 302.02 284.755C302.02 277.609 306.967 268.996 313.197 265.515C319.427 262.033 324.375 264.782 324.375 271.928Z" fill="url(#paint16_linear)"/>
</g>
<path id="Vector_76" d="M318.52 264.049C319.436 265.332 319.986 267.164 319.986 269.546C319.986 276.693 315.039 285.305 308.808 288.786C306.976 289.886 305.144 290.436 303.678 290.252C305.51 293.001 309.175 293.551 313.389 291.169C319.62 287.687 324.567 279.075 324.567 271.928C324.384 266.981 322.002 264.232 318.52 264.049Z" fill="#3469C5"/>
<path id="Vector_77" d="M287.362 180.675L263.357 194.418V166.749L287.362 152.822V180.675Z" fill="#252250"/>
<path id="Vector_78" opacity="0.8" d="M283.88 155.021V178.659L263.357 190.387V194.418L287.362 180.675V152.822L283.88 155.021Z" fill="#0B0D11"/>
<path id="Vector_79" d="M267.947 174.261L265.748 175.544V173.162L267.947 171.879V174.261Z" fill="#4DCAFF"/>
<path id="Vector_80" d="M272.535 168.581L270.336 169.68V167.298L272.535 166.016V168.581Z" fill="#4DCAFF"/>
<path id="Vector_81" d="M277.121 169.131L274.922 170.23V167.848L277.121 166.566V169.131Z" fill="#4DCAFF"/>
<path id="Vector_82" d="M277.121 175.544L274.922 176.827V174.261L277.121 173.162V175.544Z" fill="#4DCAFF"/>
<path id="Vector_83" d="M274.375 180.492L272.176 181.774V179.392L274.375 178.109V180.492Z" fill="#4DCAFF"/>
<path id="Vector_84" d="M281.686 172.795L279.67 174.078V171.696L281.686 170.413V172.795Z" fill="#4DCAFF"/>
<path id="Vector_85" d="M306.774 173.345L309.339 168.764L306.774 167.298L282.77 181.041V208.71L285.335 210.36L287.9 205.779L306.774 194.967V173.345Z" fill="#3469C4"/>
<path id="Vector_86" d="M309.325 196.433L285.32 210.36V182.69L309.325 168.764V196.433Z" fill="url(#paint17_linear)"/>
<path id="Vector_87" d="M309.325 196.433L285.32 210.36V182.69L309.325 168.764V196.433Z" fill="url(#paint18_linear)"/>
<path id="Vector_88" d="M281.107 172.429L280.74 172.062L307.127 143.66H382.622L410.474 115.808V2.38205H411.207V115.991L382.988 144.21H307.493L281.107 172.429Z" fill="#4DCAFF"/>
<path id="Vector_89" d="M410.629 87.5888L397.436 74.3956V27.8526H398.169V74.2123L410.995 87.2224L410.629 87.5888Z" fill="#4DCAFF"/>
<path id="Vector_90" d="M330.005 144.21L329.639 143.843L344.481 128.818H376.731L392.307 113.426L392.673 113.792L377.098 129.551H344.664L330.005 144.21Z" fill="#4DCAFF"/>
<path id="Vector_91" d="M392.496 115.808C391.396 115.808 390.297 114.892 390.297 113.609C390.297 112.509 391.213 111.41 392.496 111.41C393.595 111.41 394.695 112.326 394.695 113.609C394.695 114.892 393.595 115.808 392.496 115.808Z" fill="#4DCAFF"/>
<path id="Vector_92" d="M370.693 101.332C369.594 101.332 368.494 100.416 368.494 99.133C368.494 97.8503 369.41 96.9341 370.693 96.9341C371.976 96.9341 372.892 97.8503 372.892 99.133C372.892 100.416 371.976 101.332 370.693 101.332Z" fill="#4DCAFF"/>
<path id="Vector_93" d="M387.91 80.0759C386.81 80.0759 385.711 79.1597 385.711 77.877C385.711 76.7776 386.627 75.6782 387.91 75.6782C389.192 75.6782 390.109 76.5944 390.109 77.877C390.109 79.1597 389.192 80.0759 387.91 80.0759Z" fill="#4DCAFF"/>
<path id="Vector_94" d="M379.478 26.2033C378.379 26.2033 377.279 25.2871 377.279 24.0044C377.279 22.905 378.195 21.8055 379.478 21.8055C380.578 21.8055 381.677 22.7217 381.677 24.0044C381.677 25.2871 380.578 26.2033 379.478 26.2033Z" fill="#4DCAFF"/>
<path id="Vector_95" d="M397.826 29.8683C396.726 29.8683 395.627 28.9521 395.627 27.6694C395.627 26.5699 396.543 25.4705 397.826 25.4705C399.109 25.4705 400.025 26.3867 400.025 27.6694C400.025 28.9521 399.109 29.8683 397.826 29.8683Z" fill="#4DCAFF"/>
<path id="Vector_96" d="M410.808 4.39776C409.709 4.39776 408.609 3.48156 408.609 2.19888C408.609 1.09944 409.526 0 410.808 0C411.908 0 413.007 0.916201 413.007 2.19888C413.007 3.48156 411.908 4.39776 410.808 4.39776Z" fill="#4DCAFF"/>
<path id="Vector_97" d="M308.035 94.5521C306.935 94.5521 305.836 93.6359 305.836 92.3532C305.836 91.0705 306.752 90.1543 308.035 90.1543C309.134 90.1543 310.234 91.0705 310.234 92.3532C310.234 93.6359 309.317 94.5521 308.035 94.5521Z" fill="#4DCAFF"/>
<path id="Vector_98" d="M267.163 173.712H266.43V161.068H266.613L296.664 130.467V87.2222L321.585 62.3016H370.51L379.122 53.6893V24.1876H379.855V53.8725L370.693 62.8513H321.768L297.214 87.4055V130.833L267.163 161.434V173.712Z" fill="#4DCAFF"/>
<path id="Vector_99" d="M297.212 120.572L296.662 120.206L307.84 109.211V92.3531H308.389V109.394L297.212 120.572Z" fill="#4DCAFF"/>
<path id="Vector_100" d="M271.544 168.214L271.178 167.848L340.076 98.7664H370.311V99.4994H340.443L271.544 168.214Z" fill="#4DCAFF"/>
<path id="Vector_101" d="M327.821 111.96H327.088V89.9709L339.548 77.6938H387.924V78.2436H339.731L327.821 90.3374V111.96Z" fill="#4DCAFF"/>
<g id="Vector_102" filter="url(#filter20_b)">
<path d="M317.586 342.109C314.837 350.905 300.727 368.129 291.749 365.381C282.77 362.632 282.953 341.193 285.518 332.398C288.267 323.602 297.429 318.471 306.408 321.22C315.203 323.968 320.151 333.314 317.586 342.109Z" fill="white" fill-opacity="0.9"/>
</g>
<path id="Vector_103" d="M300.539 321.403C305.12 321.037 311.167 323.785 313.733 327.633C316.481 331.481 314.832 334.78 310.251 335.329C305.67 335.696 299.623 332.947 297.058 329.099C294.309 325.251 295.958 321.77 300.539 321.403Z" fill="#251C72"/>
<path id="Vector_104" d="M300.539 321.403C305.12 321.037 311.167 323.785 313.733 327.633C316.481 331.481 314.832 334.78 310.251 335.329C305.67 335.696 299.623 332.947 297.058 329.099C294.309 325.251 295.958 321.77 300.539 321.403Z" fill="url(#paint19_linear)"/>
<path id="Vector_105" d="M295.598 325.801C296.331 325.068 297.613 324.702 299.079 324.518C303.66 324.152 309.707 326.9 312.272 330.748C313.005 331.848 313.555 333.131 313.555 334.047C315.204 332.581 315.388 330.199 313.555 327.633C310.807 323.785 304.943 321.037 300.362 321.403C297.247 321.77 295.598 323.419 295.598 325.801Z" fill="#3469C5"/>
<g id="Vector_106" opacity="0.6" filter="url(#filter21_d)">
<path d="M313.538 310.775C314.087 310.226 314.087 309.493 313.538 308.943C312.988 308.393 312.255 308.393 311.705 308.943C311.156 309.493 311.156 310.226 311.705 310.775C312.255 311.325 313.171 311.325 313.538 310.775Z" fill="#4DCAFF"/>
</g>
<g id="Vector_107" filter="url(#filter22_d)">
<path d="M328.944 308.576C330.227 307.294 330.41 305.278 329.127 303.812C327.845 302.529 325.829 302.346 324.363 303.629C323.081 304.912 322.897 306.927 324.18 308.393C325.463 309.859 327.662 309.859 328.944 308.576Z" fill="#4DCAFF"/>
</g>
<g id="Vector_108" opacity="0.6" filter="url(#filter23_d)">
<path d="M320.512 327.267C321.245 326.534 321.245 325.435 320.512 324.702C319.779 323.969 318.679 323.969 317.946 324.702C317.213 325.435 317.213 326.534 317.946 327.267C318.679 328 319.779 328 320.512 327.267Z" fill="#4DCAFF"/>
</g>
<g id="Vector_109" filter="url(#filter24_d)">
<path d="M324.905 321.037C325.455 320.487 325.455 319.754 324.905 319.204C324.355 318.655 323.622 318.655 323.072 319.204C322.523 319.754 322.523 320.487 323.072 321.037C323.622 321.403 324.355 321.586 324.905 321.037Z" fill="#4DCAFF"/>
</g>
<g id="Vector_110" filter="url(#filter25_d)">
<path d="M325.835 323.969C326.201 323.602 326.201 323.052 325.835 322.686C325.468 322.32 324.919 322.32 324.552 322.686C324.186 323.052 324.186 323.602 324.552 323.969C324.919 324.335 325.468 324.335 325.835 323.969Z" fill="#4DCAFF"/>
</g>
<g id="Vector_111" opacity="0.6" filter="url(#filter26_d)">
<path d="M316.281 299.048C317.014 298.315 317.014 297.216 316.281 296.483C315.548 295.75 314.449 295.75 313.716 296.483C312.983 297.216 312.983 298.315 313.716 299.048C314.449 299.781 315.548 299.781 316.281 299.048Z" fill="#4DCAFF"/>
</g>
<g id="Vector_112" filter="url(#filter27_d)">
<path d="M312.819 303.446C313.918 302.346 313.918 300.697 313.002 299.597C311.902 298.498 310.253 298.498 309.154 299.414C308.054 300.514 308.054 302.163 308.97 303.262C309.887 304.362 311.719 304.545 312.819 303.446Z" fill="#4DCAFF"/>
</g>
<g id="Group 663">
<g id="Group 661">
<g id="Group 660">
<g id="Vector_113" filter="url(#filter28_d)">
<mask id="path-119-outside-1" maskUnits="userSpaceOnUse" x="84.0742" y="75.0611" width="143" height="251" fill="black">
<rect fill="white" x="84.0742" y="75.0611" width="143" height="251"/>
<path d="M224.421 321.325C224.421 322.791 223.504 323.524 222.405 322.791L88.0899 245.83C86.9904 245.28 86.0742 243.448 86.0742 241.982V79.8146C86.0742 78.3486 86.9904 77.6157 88.0899 78.3486L222.405 155.309C223.504 155.859 224.421 157.692 224.421 159.158V321.325Z"/>
</mask>
<path d="M224.421 321.325C224.421 322.791 223.504 323.524 222.405 322.791L88.0899 245.83C86.9904 245.28 86.0742 243.448 86.0742 241.982V79.8146C86.0742 78.3486 86.9904 77.6157 88.0899 78.3486L222.405 155.309C223.504 155.859 224.421 157.692 224.421 159.158V321.325Z" fill="url(#paint20_linear)" fill-opacity="0.4"/>
<path d="M224.421 321.325C224.421 322.791 223.504 323.524 222.405 322.791L88.0899 245.83C86.9904 245.28 86.0742 243.448 86.0742 241.982V79.8146C86.0742 78.3486 86.9904 77.6157 88.0899 78.3486L222.405 155.309C223.504 155.859 224.421 157.692 224.421 159.158V321.325Z" stroke="#D8E5FF" stroke-width="4" mask="url(#path-119-outside-1)"/>
</g>
<g id="Group 659">
<path id="Vector_114" opacity="0.4" d="M127.473 150.728L114.463 143.216V139.917L127.473 147.43V150.728Z" fill="#4DCAFF"/>
<path id="Vector_115" opacity="0.4" d="M138.663 157.142L132.066 153.294V149.995L138.663 153.843V157.142Z" fill="#4DCAFF"/>
<path id="Vector_116" opacity="0.4" d="M131.329 160.623L125.832 157.325V154.027L131.329 157.325V160.623Z" fill="#4DCAFF"/>
<path id="Vector_117" opacity="0.4" d="M140.663 165.937L134.066 162.273V158.974L140.663 162.639V165.937Z" fill="#4DCAFF"/>
<path id="Vector_118" opacity="0.4" d="M131.329 176.015L125.832 172.9V169.602L131.329 172.717V176.015Z" fill="#4DCAFF"/>
<path id="Vector_119" opacity="0.4" d="M140.663 181.513L134.066 177.665V174.366L140.663 178.214V181.513Z" fill="#4DCAFF"/>
<path id="Vector_120" opacity="0.4" d="M139.942 188.659L125.832 180.596V177.298L139.942 185.361V188.659Z" fill="#4DCAFF"/>
<path id="Vector_121" opacity="0.4" d="M149.288 194.156L142.691 190.308V187.01L149.288 190.858V194.156Z" fill="#4DCAFF"/>
<path id="Vector_122" opacity="0.4" d="M158.815 199.653L152.219 195.805V192.507L158.815 196.355V199.653Z" fill="#4DCAFF"/>
<path id="Vector_123" opacity="0.4" d="M174.21 208.449L161.75 201.303V198.004L174.21 205.151V208.449Z" fill="#4DCAFF"/>
<path id="Vector_124" opacity="0.4" d="M166.698 219.627L160.102 215.779V212.48L166.698 216.328V219.627Z" fill="#4DCAFF"/>
<path id="Vector_125" opacity="0.4" d="M182.091 228.422L169.631 221.276V217.978L182.091 225.124V228.422Z" fill="#4DCAFF"/>
<path id="Vector_126" opacity="0.4" d="M132.245 199.654L125.832 195.989V192.691L132.245 196.539V199.654Z" fill="#4DCAFF"/>
<path id="Vector_127" opacity="0.4" d="M157.156 214.13L144.695 206.983V203.685L157.156 210.831V214.13Z" fill="#4DCAFF"/>
<path id="Vector_128" opacity="0.4" d="M176.032 217.245L169.436 213.58V210.282L176.032 213.946V217.245Z" fill="#4DCAFF"/>
<path id="Vector_129" opacity="0.4" d="M185.56 222.742L178.963 218.894V215.778L185.56 219.443V222.742Z" fill="#4DCAFF"/>
<path id="Vector_130" opacity="0.4" d="M200.771 231.537L188.494 224.391V221.093L200.771 228.239V231.537Z" fill="#4DCAFF"/>
<path id="Vector_131" opacity="0.4" d="M132.245 215.229L125.832 211.381V208.083L132.245 211.931V215.229Z" fill="#4DCAFF"/>
<path id="Vector_132" opacity="0.4" d="M147.628 224.024L135.168 216.878V213.58L147.628 220.726V224.024Z" fill="#4DCAFF"/>
<path id="Vector_133" opacity="0.4" d="M170.908 191.224L164.494 187.376V184.078L170.908 187.926V191.224Z" fill="#4DCAFF"/>
<path id="Vector_134" opacity="0.4" d="M186.288 200.02L173.828 192.874V189.575L186.288 196.722V200.02Z" fill="#4DCAFF"/>
<path id="Vector_135" opacity="0.4" d="M131.696 191.591L125.832 188.293V184.994L131.696 188.293V191.591Z" fill="#4DCAFF"/>
<path id="Vector_136" opacity="0.4" d="M149.103 201.669L134.811 193.423V190.125L149.103 198.371V201.669Z" fill="#4DCAFF"/>
<path id="Vector_137" opacity="0.4" d="M166.511 211.931L152.219 203.501V200.203L166.511 208.632V211.931Z" fill="#4DCAFF"/>
<path id="Vector_138" opacity="0.4" d="M195.26 205.334L189.396 201.852V198.554L195.26 202.035V205.334Z" fill="#4DCAFF"/>
<path id="Vector_139" opacity="0.4" d="M140.125 212.114L125.832 203.685V200.387L140.125 208.816V212.114Z" fill="#4DCAFF"/>
<path id="Vector_140" opacity="0.4" d="M169.264 228.789L158.453 222.559V219.26L169.264 225.49V228.789Z" fill="#4DCAFF"/>
<path id="Vector_141" opacity="0.4" d="M172.171 230.621L161.359 224.208V220.909L172.171 227.323V230.621Z" fill="#4DCAFF"/>
<path id="Vector_142" opacity="0.4" d="M181.357 212.664L176.959 210.098V206.8L181.357 209.365V212.664Z" fill="#4DCAFF"/>
<path id="Vector_143" opacity="0.4" d="M195.462 220.726L184.65 214.496V211.198L195.462 217.428V220.726Z" fill="#4DCAFF"/>
<path id="Union_2" fill-rule="evenodd" clip-rule="evenodd" d="M125.832 165.021L151.486 179.864V176.565L125.832 161.906V165.021ZM135.168 201.486L141.765 205.151V201.852L135.168 198.188V201.486ZM160.993 185.544L154.58 181.696V178.398L160.993 182.246V185.544ZM143.402 213.763L147.8 216.329V213.03L143.402 210.465V213.763ZM155.327 220.726L150.93 218.161V214.862L155.327 217.428V220.726ZM114.463 212.663L118.861 215.229V211.93L114.463 209.365V212.663Z" fill="url(#paint21_linear)"/>
<path id="Vector_144" opacity="0.4" d="M132.96 223.291L122.148 217.061V213.763L132.96 219.993V223.291Z" fill="#4DCAFF"/>
<path id="Vector_145" opacity="0.4" d="M147.268 231.537L136.457 225.307V222.009L147.268 228.239V231.537Z" fill="#4DCAFF"/>
</g>
</g>
</g>
</g>
</g>
</g>
<g id="nav-bar">
<g id="bottom-nav" filter="url(#filter29_bd)">
<rect width="1440" height="108" transform="translate(-755 -99)" fill="#FCFCFC" fill-opacity="0.8"/>
</g>
</g>
</g>
<defs>
<filter id="filter0_f" x="-36" y="-426" width="892" height="892" filterUnits="userSpaceOnUse" color-interpolation-filters="sRGB">
<feFlood flood-opacity="0" result="BackgroundImageFix"/>
<feBlend mode="normal" in="SourceGraphic" in2="BackgroundImageFix" result="shape"/>
<feGaussianBlur stdDeviation="100" result="effect1_foregroundBlur"/>
</filter>
<filter id="filter1_f" x="-180" y="-20" width="1036" height="1036" filterUnits="userSpaceOnUse" color-interpolation-filters="sRGB">
<feFlood flood-opacity="0" result="BackgroundImageFix"/>
<feBlend mode="normal" in="SourceGraphic" in2="BackgroundImageFix" result="shape"/>
<feGaussianBlur stdDeviation="120" result="effect1_foregroundBlur"/>
</filter>
<filter id="filter2_b" x="-3.64648" y="318.501" width="130.919" height="62.4242" filterUnits="userSpaceOnUse" color-interpolation-filters="sRGB">
<feFlood flood-opacity="0" result="BackgroundImageFix"/>
<feGaussianBlur in="BackgroundImage" stdDeviation="2"/>
<feComposite in2="SourceAlpha" operator="in" result="effect1_backgroundBlur"/>
<feBlend mode="normal" in="SourceGraphic" in2="effect1_backgroundBlur" result="shape"/>
</filter>
<filter id="filter3_b" x="326.375" y="231.618" width="130.919" height="62.4242" filterUnits="userSpaceOnUse" color-interpolation-filters="sRGB">
<feFlood flood-opacity="0" result="BackgroundImageFix"/>
<feGaussianBlur in="BackgroundImage" stdDeviation="2"/>
<feComposite in2="SourceAlpha" operator="in" result="effect1_backgroundBlur"/>
<feBlend mode="normal" in="SourceGraphic" in2="effect1_backgroundBlur" result="shape"/>
</filter>
<filter id="filter4_b" x="158.375" y="418.619" width="130.919" height="62.4242" filterUnits="userSpaceOnUse" color-interpolation-filters="sRGB">
<feFlood flood-opacity="0" result="BackgroundImageFix"/>
<feGaussianBlur in="BackgroundImage" stdDeviation="2"/>
<feComposite in2="SourceAlpha" operator="in" result="effect1_backgroundBlur"/>
<feBlend mode="normal" in="SourceGraphic" in2="effect1_backgroundBlur" result="shape"/>
</filter>
<filter id="filter5_b" x="97.1875" y="228.966" width="62.2717" height="73.1978" filterUnits="userSpaceOnUse" color-interpolation-filters="sRGB">
<feFlood flood-opacity="0" result="BackgroundImageFix"/>
<feGaussianBlur in="BackgroundImage" stdDeviation="7"/>
<feComposite in2="SourceAlpha" operator="in" result="effect1_backgroundBlur"/>
<feBlend mode="normal" in="SourceGraphic" in2="effect1_backgroundBlur" result="shape"/>
</filter>
<filter id="filter6_d" x="138.045" y="236.312" width="10.5654" height="10.5654" filterUnits="userSpaceOnUse" color-interpolation-filters="sRGB">
<feFlood flood-opacity="0" result="BackgroundImageFix"/>
<feColorMatrix in="SourceAlpha" type="matrix" values="0 0 0 0 0 0 0 0 0 0 0 0 0 0 0 0 0 0 127 0"/>
<feOffset dy="1"/>
<feGaussianBlur stdDeviation="2"/>
<feColorMatrix type="matrix" values="0 0 0 0 0.290196 0 0 0 0 0.85098 0 0 0 0 1 0 0 0 0.8 0"/>
<feBlend mode="normal" in2="BackgroundImageFix" result="effect1_dropShadow"/>
<feBlend mode="normal" in="SourceGraphic" in2="effect1_dropShadow" result="shape"/>
</filter>
<filter id="filter7_d" x="123.381" y="227.15" width="14.7799" height="14.7799" filterUnits="userSpaceOnUse" color-interpolation-filters="sRGB">
<feFlood flood-opacity="0" result="BackgroundImageFix"/>
<feColorMatrix in="SourceAlpha" type="matrix" values="0 0 0 0 0 0 0 0 0 0 0 0 0 0 0 0 0 0 127 0"/>
<feOffset dy="1"/>
<feGaussianBlur stdDeviation="2"/>
<feColorMatrix type="matrix" values="0 0 0 0 0.290196 0 0 0 0 0.85098 0 0 0 0 1 0 0 0 0.8 0"/>
<feBlend mode="normal" in2="BackgroundImageFix" result="effect1_dropShadow"/>
<feBlend mode="normal" in="SourceGraphic" in2="effect1_dropShadow" result="shape"/>
</filter>
<filter id="filter8_d" x="144.086" y="219.637" width="11.6648" height="11.6648" filterUnits="userSpaceOnUse" color-interpolation-filters="sRGB">
<feFlood flood-opacity="0" result="BackgroundImageFix"/>
<feColorMatrix in="SourceAlpha" type="matrix" values="0 0 0 0 0 0 0 0 0 0 0 0 0 0 0 0 0 0 127 0"/>
<feOffset dy="1"/>
<feGaussianBlur stdDeviation="2"/>
<feColorMatrix type="matrix" values="0 0 0 0 0.290196 0 0 0 0 0.85098 0 0 0 0 1 0 0 0 0.8 0"/>
<feBlend mode="normal" in2="BackgroundImageFix" result="effect1_dropShadow"/>
<feBlend mode="normal" in="SourceGraphic" in2="effect1_dropShadow" result="shape"/>
</filter>
<filter id="filter9_d" x="137.107" y="221.103" width="10.5654" height="10.5654" filterUnits="userSpaceOnUse" color-interpolation-filters="sRGB">
<feFlood flood-opacity="0" result="BackgroundImageFix"/>
<feColorMatrix in="SourceAlpha" type="matrix" values="0 0 0 0 0 0 0 0 0 0 0 0 0 0 0 0 0 0 127 0"/>
<feOffset dy="1"/>
<feGaussianBlur stdDeviation="2"/>
<feColorMatrix type="matrix" values="0 0 0 0 0.290196 0 0 0 0 0.85098 0 0 0 0 1 0 0 0 0.8 0"/>
<feBlend mode="normal" in2="BackgroundImageFix" result="effect1_dropShadow"/>
<feBlend mode="normal" in="SourceGraphic" in2="effect1_dropShadow" result="shape"/>
</filter>
<filter id="filter10_d" x="138.949" y="218.354" width="9.8324" height="9.8324" filterUnits="userSpaceOnUse" color-interpolation-filters="sRGB">
<feFlood flood-opacity="0" result="BackgroundImageFix"/>
<feColorMatrix in="SourceAlpha" type="matrix" values="0 0 0 0 0 0 0 0 0 0 0 0 0 0 0 0 0 0 127 0"/>
<feOffset dy="1"/>
<feGaussianBlur stdDeviation="2"/>
<feColorMatrix type="matrix" values="0 0 0 0 0.290196 0 0 0 0 0.85098 0 0 0 0 1 0 0 0 0.8 0"/>
<feBlend mode="normal" in2="BackgroundImageFix" result="effect1_dropShadow"/>
<feBlend mode="normal" in="SourceGraphic" in2="effect1_dropShadow" result="shape"/>
</filter>
<filter id="filter11_d" x="127.225" y="242.909" width="11.6648" height="11.6648" filterUnits="userSpaceOnUse" color-interpolation-filters="sRGB">
<feFlood flood-opacity="0" result="BackgroundImageFix"/>
<feColorMatrix in="SourceAlpha" type="matrix" values="0 0 0 0 0 0 0 0 0 0 0 0 0 0 0 0 0 0 127 0"/>
<feOffset dy="1"/>
<feGaussianBlur stdDeviation="2"/>
<feColorMatrix type="matrix" values="0 0 0 0 0.290196 0 0 0 0 0.85098 0 0 0 0 1 0 0 0 0.8 0"/>
<feBlend mode="normal" in2="BackgroundImageFix" result="effect1_dropShadow"/>
<feBlend mode="normal" in="SourceGraphic" in2="effect1_dropShadow" result="shape"/>
</filter>
<filter id="filter12_d" x="132.002" y="242.176" width="13.4972" height="13.4972" filterUnits="userSpaceOnUse" color-interpolation-filters="sRGB">
<feFlood flood-opacity="0" result="BackgroundImageFix"/>
<feColorMatrix in="SourceAlpha" type="matrix" values="0 0 0 0 0 0 0 0 0 0 0 0 0 0 0 0 0 0 127 0"/>
<feOffset dy="1"/>
<feGaussianBlur stdDeviation="2"/>
<feColorMatrix type="matrix" values="0 0 0 0 0.290196 0 0 0 0 0.85098 0 0 0 0 1 0 0 0 0.8 0"/>
<feBlend mode="normal" in2="BackgroundImageFix" result="effect1_dropShadow"/>
<feBlend mode="normal" in="SourceGraphic" in2="effect1_dropShadow" result="shape"/>
</filter>
<filter id="filter13_b" x="129.334" y="169.973" width="78.2078" height="78.2078" filterUnits="userSpaceOnUse" color-interpolation-filters="sRGB">
<feFlood flood-opacity="0" result="BackgroundImageFix"/>
<feGaussianBlur in="BackgroundImage" stdDeviation="7"/>
<feComposite in2="SourceAlpha" operator="in" result="effect1_backgroundBlur"/>
<feBlend mode="normal" in="SourceGraphic" in2="effect1_backgroundBlur" result="shape"/>
</filter>
<filter id="filter14_b" x="150.039" y="177.301" width="157.734" height="179.908" filterUnits="userSpaceOnUse" color-interpolation-filters="sRGB">
<feFlood flood-opacity="0" result="BackgroundImageFix"/>
<feGaussianBlur in="BackgroundImage" stdDeviation="7"/>
<feComposite in2="SourceAlpha" operator="in" result="effect1_backgroundBlur"/>
<feBlend mode="normal" in="SourceGraphic" in2="effect1_backgroundBlur" result="shape"/>
</filter>
<filter id="filter15_b" x="170.547" y="177.853" width="116.688" height="79.3072" filterUnits="userSpaceOnUse" color-interpolation-filters="sRGB">
<feFlood flood-opacity="0" result="BackgroundImageFix"/>
<feGaussianBlur in="BackgroundImage" stdDeviation="7"/>
<feComposite in2="SourceAlpha" operator="in" result="effect1_backgroundBlur"/>
<feBlend mode="normal" in="SourceGraphic" in2="effect1_backgroundBlur" result="shape"/>
</filter>
<filter id="filter16_b" x="170.594" y="177.807" width="116.72" height="56.9978" filterUnits="userSpaceOnUse" color-interpolation-filters="sRGB">
<feFlood flood-opacity="0" result="BackgroundImageFix"/>
<feGaussianBlur in="BackgroundImage" stdDeviation="7"/>
<feComposite in2="SourceAlpha" operator="in" result="effect1_backgroundBlur"/>
<feBlend mode="normal" in="SourceGraphic" in2="effect1_backgroundBlur" result="shape"/>
</filter>
<filter id="filter17_b" x="151.137" y="75.9709" width="160.666" height="160.666" filterUnits="userSpaceOnUse" color-interpolation-filters="sRGB">
<feFlood flood-opacity="0" result="BackgroundImageFix"/>
<feGaussianBlur in="BackgroundImage" stdDeviation="7"/>
<feComposite in2="SourceAlpha" operator="in" result="effect1_backgroundBlur"/>
<feBlend mode="normal" in="SourceGraphic" in2="effect1_backgroundBlur" result="shape"/>
</filter>
<filter id="filter18_b" x="261.082" y="232.458" width="78.2078" height="78.2078" filterUnits="userSpaceOnUse" color-interpolation-filters="sRGB">
<feFlood flood-opacity="0" result="BackgroundImageFix"/>
<feGaussianBlur in="BackgroundImage" stdDeviation="7"/>
<feComposite in2="SourceAlpha" operator="in" result="effect1_backgroundBlur"/>
<feBlend mode="normal" in="SourceGraphic" in2="effect1_backgroundBlur" result="shape"/>
</filter>
<filter id="filter19_d" x="288.02" y="254.013" width="50.3553" height="56.6573" filterUnits="userSpaceOnUse" color-interpolation-filters="sRGB">
<feFlood flood-opacity="0" result="BackgroundImageFix"/>
<feColorMatrix in="SourceAlpha" type="matrix" values="0 0 0 0 0 0 0 0 0 0 0 0 0 0 0 0 0 0 127 0"/>
<feOffset dy="4"/>
<feGaussianBlur stdDeviation="7"/>
<feColorMatrix type="matrix" values="0 0 0 0 0.337255 0 0 0 0 0.760784 0 0 0 0 0.996078 0 0 0 1 0"/>
<feBlend mode="normal" in2="BackgroundImageFix" result="effect1_dropShadow"/>
<feBlend mode="normal" in="SourceGraphic" in2="effect1_dropShadow" result="shape"/>
</filter>
<filter id="filter20_b" x="269.99" y="306.477" width="62.2717" height="73.1978" filterUnits="userSpaceOnUse" color-interpolation-filters="sRGB">
<feFlood flood-opacity="0" result="BackgroundImageFix"/>
<feGaussianBlur in="BackgroundImage" stdDeviation="7"/>
<feComposite in2="SourceAlpha" operator="in" result="effect1_backgroundBlur"/>
<feBlend mode="normal" in="SourceGraphic" in2="effect1_backgroundBlur" result="shape"/>
</filter>
<filter id="filter21_d" x="307.293" y="305.531" width="10.657" height="10.657" filterUnits="userSpaceOnUse" color-interpolation-filters="sRGB">
<feFlood flood-opacity="0" result="BackgroundImageFix"/>
<feColorMatrix in="SourceAlpha" type="matrix" values="0 0 0 0 0 0 0 0 0 0 0 0 0 0 0 0 0 0 127 0"/>
<feOffset dy="1"/>
<feGaussianBlur stdDeviation="2"/>
<feColorMatrix type="matrix" values="0 0 0 0 0.290196 0 0 0 0 0.85098 0 0 0 0 1 0 0 0 0.8 0"/>
<feBlend mode="normal" in2="BackgroundImageFix" result="effect1_dropShadow"/>
<feBlend mode="normal" in="SourceGraphic" in2="effect1_dropShadow" result="shape"/>
</filter>
<filter id="filter22_d" x="319.305" y="299.754" width="14.698" height="14.763" filterUnits="userSpaceOnUse" color-interpolation-filters="sRGB">
<feFlood flood-opacity="0" result="BackgroundImageFix"/>
<feColorMatrix in="SourceAlpha" type="matrix" values="0 0 0 0 0 0 0 0 0 0 0 0 0 0 0 0 0 0 127 0"/>
<feOffset dy="1"/>
<feGaussianBlur stdDeviation="2"/>
<feColorMatrix type="matrix" values="0 0 0 0 0.290196 0 0 0 0 0.85098 0 0 0 0 1 0 0 0 0.8 0"/>
<feBlend mode="normal" in2="BackgroundImageFix" result="effect1_dropShadow"/>
<feBlend mode="normal" in="SourceGraphic" in2="effect1_dropShadow" result="shape"/>
</filter>
<filter id="filter23_d" x="313.396" y="321.152" width="11.6648" height="11.6648" filterUnits="userSpaceOnUse" color-interpolation-filters="sRGB">
<feFlood flood-opacity="0" result="BackgroundImageFix"/>
<feColorMatrix in="SourceAlpha" type="matrix" values="0 0 0 0 0 0 0 0 0 0 0 0 0 0 0 0 0 0 127 0"/>
<feOffset dy="1"/>
<feGaussianBlur stdDeviation="2"/>
<feColorMatrix type="matrix" values="0 0 0 0 0.290196 0 0 0 0 0.85098 0 0 0 0 1 0 0 0 0.8 0"/>
<feBlend mode="normal" in2="BackgroundImageFix" result="effect1_dropShadow"/>
<feBlend mode="normal" in="SourceGraphic" in2="effect1_dropShadow" result="shape"/>
</filter>
<filter id="filter24_d" x="318.66" y="315.792" width="10.657" height="10.5916" filterUnits="userSpaceOnUse" color-interpolation-filters="sRGB">
<feFlood flood-opacity="0" result="BackgroundImageFix"/>
<feColorMatrix in="SourceAlpha" type="matrix" values="0 0 0 0 0 0 0 0 0 0 0 0 0 0 0 0 0 0 127 0"/>
<feOffset dy="1"/>
<feGaussianBlur stdDeviation="2"/>
<feColorMatrix type="matrix" values="0 0 0 0 0.290196 0 0 0 0 0.85098 0 0 0 0 1 0 0 0 0.8 0"/>
<feBlend mode="normal" in2="BackgroundImageFix" result="effect1_dropShadow"/>
<feBlend mode="normal" in="SourceGraphic" in2="effect1_dropShadow" result="shape"/>
</filter>
<filter id="filter25_d" x="320.277" y="319.411" width="9.83242" height="9.8324" filterUnits="userSpaceOnUse" color-interpolation-filters="sRGB">
<feFlood flood-opacity="0" result="BackgroundImageFix"/>
<feColorMatrix in="SourceAlpha" type="matrix" values="0 0 0 0 0 0 0 0 0 0 0 0 0 0 0 0 0 0 127 0"/>
<feOffset dy="1"/>
<feGaussianBlur stdDeviation="2"/>
<feColorMatrix type="matrix" values="0 0 0 0 0.290196 0 0 0 0 0.85098 0 0 0 0 1 0 0 0 0.8 0"/>
<feBlend mode="normal" in2="BackgroundImageFix" result="effect1_dropShadow"/>
<feBlend mode="normal" in="SourceGraphic" in2="effect1_dropShadow" result="shape"/>
</filter>
<filter id="filter26_d" x="309.166" y="292.933" width="11.6648" height="11.6648" filterUnits="userSpaceOnUse" color-interpolation-filters="sRGB">
<feFlood flood-opacity="0" result="BackgroundImageFix"/>
<feColorMatrix in="SourceAlpha" type="matrix" values="0 0 0 0 0 0 0 0 0 0 0 0 0 0 0 0 0 0 127 0"/>
<feOffset dy="1"/>
<feGaussianBlur stdDeviation="2"/>
<feColorMatrix type="matrix" values="0 0 0 0 0.290196 0 0 0 0 0.85098 0 0 0 0 1 0 0 0 0.8 0"/>
<feBlend mode="normal" in2="BackgroundImageFix" result="effect1_dropShadow"/>
<feBlend mode="normal" in="SourceGraphic" in2="effect1_dropShadow" result="shape"/>
</filter>
<filter id="filter27_d" x="304.305" y="295.748" width="13.3629" height="13.4358" filterUnits="userSpaceOnUse" color-interpolation-filters="sRGB">
<feFlood flood-opacity="0" result="BackgroundImageFix"/>
<feColorMatrix in="SourceAlpha" type="matrix" values="0 0 0 0 0 0 0 0 0 0 0 0 0 0 0 0 0 0 127 0"/>
<feOffset dy="1"/>
<feGaussianBlur stdDeviation="2"/>
<feColorMatrix type="matrix" values="0 0 0 0 0.290196 0 0 0 0 0.85098 0 0 0 0 1 0 0 0 0.8 0"/>
<feBlend mode="normal" in2="BackgroundImageFix" result="effect1_dropShadow"/>
<feBlend mode="normal" in="SourceGraphic" in2="effect1_dropShadow" result="shape"/>
</filter>
<filter id="filter28_d" x="60.0742" y="56.0599" width="190.346" height="297.02" filterUnits="userSpaceOnUse" color-interpolation-filters="sRGB">
<feFlood flood-opacity="0" result="BackgroundImageFix"/>
<feColorMatrix in="SourceAlpha" type="matrix" values="0 0 0 0 0 0 0 0 0 0 0 0 0 0 0 0 0 0 127 0"/>
<feOffset dy="4"/>
<feGaussianBlur stdDeviation="12"/>
<feColorMatrix type="matrix" values="0 0 0 0 0.509804 0 0 0 0 0.909804 0 0 0 0 1 0 0 0 0.21 0"/>
<feBlend mode="normal" in2="BackgroundImageFix" result="effect1_dropShadow"/>
<feBlend mode="normal" in="SourceGraphic" in2="effect1_dropShadow" result="shape"/>
</filter>
<filter id="filter29_bd" x="-775" y="-119" width="1480" height="164" filterUnits="userSpaceOnUse" color-interpolation-filters="sRGB">
<feFlood flood-opacity="0" result="BackgroundImageFix"/>
<feGaussianBlur in="BackgroundImage" stdDeviation="10"/>
<feComposite in2="SourceAlpha" operator="in" result="effect1_backgroundBlur"/>
<feColorMatrix in="SourceAlpha" type="matrix" values="0 0 0 0 0 0 0 0 0 0 0 0 0 0 0 0 0 0 127 0"/>
<feOffset dy="16"/>
<feGaussianBlur stdDeviation="10"/>
<feColorMatrix type="matrix" values="0 0 0 0 0 0 0 0 0 0 0 0 0 0 0 0 0 0 0.04 0"/>
<feBlend mode="normal" in2="effect1_backgroundBlur" result="effect2_dropShadow"/>
<feBlend mode="normal" in="SourceGraphic" in2="effect2_dropShadow" result="shape"/>
</filter>
<linearGradient id="paint0_linear" x1="135.227" y1="314.673" x2="44.7735" y2="471.486" gradientUnits="userSpaceOnUse">
<stop stop-color="#47DEFF"/>
<stop offset="1" stop-color="#9847FF"/>
</linearGradient>
<linearGradient id="paint1_linear" x1="137.124" y1="311.944" x2="86.9049" y2="438.952" gradientUnits="userSpaceOnUse">
<stop stop-color="#47DEFF"/>
<stop offset="1" stop-color="#9847FF"/>
</linearGradient>
<linearGradient id="paint2_linear" x1="465.249" y1="227.79" x2="374.795" y2="384.603" gradientUnits="userSpaceOnUse">
<stop stop-color="#47DEFF"/>
<stop offset="1" stop-color="#9847FF"/>
</linearGradient>
<linearGradient id="paint3_linear" x1="465.249" y1="237.79" x2="374.795" y2="394.603" gradientUnits="userSpaceOnUse">
<stop stop-color="#47DEFF"/>
<stop offset="1" stop-color="#9847FF"/>
</linearGradient>
<linearGradient id="paint4_linear" x1="465.249" y1="247.79" x2="374.795" y2="404.603" gradientUnits="userSpaceOnUse">
<stop stop-color="#47DEFF"/>
<stop offset="1" stop-color="#9847FF"/>
</linearGradient>
<linearGradient id="paint5_linear" x1="467.145" y1="225.061" x2="416.926" y2="352.069" gradientUnits="userSpaceOnUse">
<stop stop-color="#47DEFF"/>
<stop offset="1" stop-color="#9847FF"/>
</linearGradient>
<linearGradient id="paint6_linear" x1="297.249" y1="414.79" x2="206.795" y2="571.603" gradientUnits="userSpaceOnUse">
<stop stop-color="#47DEFF"/>
<stop offset="1" stop-color="#9847FF"/>
</linearGradient>
<linearGradient id="paint7_linear" x1="299.145" y1="412.061" x2="248.926" y2="539.069" gradientUnits="userSpaceOnUse">
<stop stop-color="#47DEFF"/>
<stop offset="1" stop-color="#9847FF"/>
</linearGradient>
<linearGradient id="paint8_linear" x1="120.706" y1="243.364" x2="140.615" y2="271.115" gradientUnits="userSpaceOnUse">
<stop stop-color="#47DEFF"/>
<stop offset="1" stop-color="#9847FF"/>
</linearGradient>
<linearGradient id="paint9_linear" x1="227.5" y1="306" x2="227.5" y2="373" gradientUnits="userSpaceOnUse">
<stop stop-color="white" stop-opacity="0.5"/>
<stop offset="1" stop-color="white" stop-opacity="0"/>
</linearGradient>
<linearGradient id="paint10_linear" x1="172.86" y1="248.307" x2="241.138" y2="297.906" gradientUnits="userSpaceOnUse">
<stop stop-color="#47DEFF"/>
<stop offset="1" stop-color="#9847FF"/>
</linearGradient>
<linearGradient id="paint11_linear" x1="170.696" y1="249.873" x2="172.488" y2="260.373" gradientUnits="userSpaceOnUse">
<stop stop-color="#47DEFF"/>
<stop offset="1" stop-color="#9847FF"/>
</linearGradient>
<linearGradient id="paint12_linear" x1="192.162" y1="250" x2="192.162" y2="297.797" gradientUnits="userSpaceOnUse">
<stop stop-opacity="0.5"/>
<stop offset="1" stop-opacity="0"/>
</linearGradient>
<linearGradient id="paint13_linear" x1="169.041" y1="250.51" x2="237.292" y2="300.026" gradientUnits="userSpaceOnUse">
<stop stop-color="#47DEFF"/>
<stop offset="1" stop-color="#9847FF"/>
</linearGradient>
<linearGradient id="paint14_linear" x1="174.554" y1="190.035" x2="241.169" y2="305.858" gradientUnits="userSpaceOnUse">
<stop stop-color="#47DEFF"/>
<stop offset="1" stop-color="#9847FF"/>
</linearGradient>
<linearGradient id="paint15_linear" x1="186.699" y1="160.498" x2="214.998" y2="180.281" gradientUnits="userSpaceOnUse">
<stop stop-color="#47DEFF"/>
<stop offset="1" stop-color="#9847FF"/>
</linearGradient>
<linearGradient id="paint16_linear" x1="306.5" y1="272" x2="339.956" y2="297.315" gradientUnits="userSpaceOnUse">
<stop stop-color="#47DEFF"/>
<stop offset="1" stop-color="#9847FF"/>
</linearGradient>
<linearGradient id="paint17_linear" x1="294.725" y1="189.835" x2="208.647" y2="200.09" gradientUnits="userSpaceOnUse">
<stop stop-color="#BCBEFF"/>
<stop offset="0.151" stop-color="#A3A7F5"/>
<stop offset="0.3866" stop-color="#8289E8"/>
<stop offset="0.6124" stop-color="#6A73DF"/>
<stop offset="0.8221" stop-color="#5C66D9"/>
<stop offset="1" stop-color="#5761D7"/>
</linearGradient>
<linearGradient id="paint18_linear" x1="282.616" y1="167.291" x2="336.87" y2="198.784" gradientUnits="userSpaceOnUse">
<stop stop-color="#47DEFF"/>
<stop offset="1" stop-color="#9847FF"/>
</linearGradient>
<linearGradient id="paint19_linear" x1="293.54" y1="320.875" x2="313.463" y2="348.586" gradientUnits="userSpaceOnUse">
<stop stop-color="#47DEFF"/>
<stop offset="1" stop-color="#9847FF"/>
</linearGradient>
<linearGradient id="paint20_linear" x1="70.4855" y1="69.3829" x2="386.576" y2="248.902" gradientUnits="userSpaceOnUse">
<stop stop-color="#47DEFF"/>
<stop offset="1" stop-color="#9847FF"/>
</linearGradient>
<linearGradient id="paint21_linear" x1="114.463" y1="161.906" x2="174.394" y2="183.453" gradientUnits="userSpaceOnUse">
<stop stop-color="#FF14BD"/>
<stop offset="1" stop-color="#E20411"/>
</linearGradient>
<clipPath id="clip0">
<rect width="1440" height="2380" fill="white" transform="translate(-755 -160)"/>
</clipPath>
</defs>
</svg>
