<svg width="248" height="54" viewBox="0 0 248 54" fill="none" xmlns="http://www.w3.org/2000/svg">
<g id="Frame 15">
<g id="lib">
<g id="logos/shield">
<path id="Vector" d="M14.5675 20.8392C14.4523 21.4633 14.4164 22.2554 14.7279 22.923L14.5675 20.8392ZM14.5675 20.8392C15.1396 21.1532 15.7947 21.638 16.1074 22.3079C16.4188 22.9753 16.3829 23.7672 16.2677 24.3915C15.6957 24.0777 15.0406 23.5927 14.7279 22.9231L14.5675 20.8392ZM42.1874 19.0287L42.1873 19.0285L41.88 18.3109C41.8501 18.241 41.7726 18.2045 41.6997 18.2261L40.9504 18.447L40.9503 18.4471C40.8625 18.473 39.3224 18.9383 38.1426 20.0949C38.0275 19.7786 37.8934 19.4724 37.7312 19.1765C38.3457 18.4594 39.1447 17.2407 39.1447 15.7385C39.1447 14.5388 38.6328 13.4975 38.1187 12.7533C37.6039 12.0081 37.0784 11.5479 37.0305 11.5067C37.0305 11.5067 37.0305 11.5067 37.0305 11.5067L36.4568 11.0126C36.4006 10.9642 36.3173 10.9642 36.261 11.0126L35.6873 11.5067L35.6872 11.5068C35.6399 11.5477 35.1142 12.0079 34.5993 12.7533C34.0852 13.4975 33.5732 14.5387 33.5732 15.7385C33.5732 17.399 34.5669 18.951 35.8276 19.9965C36.2909 20.7467 36.5054 21.765 36.7162 22.7656C36.7323 22.8418 36.7483 22.9179 36.7644 22.9938C36.6429 24.3005 37.0067 25.4969 37.1797 25.9776C37.1475 27.2136 36.9296 28.4382 36.53 29.6246C35.4373 30.728 35.028 32.2444 34.8922 32.9234C34.0684 34.1251 32.8679 35.1227 31.9247 35.7912C30.0116 36.1958 28.6314 37.7155 28.564 37.7908L28.5121 37.8487C28.3392 37.9416 28.1599 38.0373 27.9892 38.1283L27.9575 38.1452C27.8199 38.2186 27.6885 38.2886 27.5718 38.3512C27.4501 38.2859 27.3184 38.2156 27.1803 38.1419L27.156 38.1289C26.9884 38.0394 26.8116 37.945 26.6317 37.8482C25.7708 36.9079 24.5106 36.0647 23.2203 35.7915C22.2768 35.1225 21.0761 34.1249 20.2526 32.9233C20.1166 32.2445 19.7075 30.728 18.6145 29.6244C18.2151 28.4382 17.9971 27.2136 17.9649 25.9774C18.1379 25.4969 18.5017 24.3 18.3803 22.9933C18.4017 22.8922 18.4226 22.7921 18.4433 22.6931C18.6624 21.6434 18.8557 20.718 19.2966 20.0178C20.5505 18.9376 21.5713 17.3718 21.5713 15.68C21.5713 14.4746 21.0559 13.4443 20.538 12.7124C20.0195 11.9795 19.49 11.5337 19.442 11.4939L19.4419 11.4939L18.8813 11.0297C18.8258 10.9838 18.7454 10.9838 18.69 11.0297L18.1293 11.4939L18.1292 11.4939C18.0812 11.5337 17.5517 11.9795 17.0331 12.7124C16.5151 13.4443 15.9996 14.4746 15.9996 15.68C15.9996 17.184 16.8028 18.4276 17.4143 19.1586C17.2459 19.4581 17.109 19.7672 16.9931 20.0861C15.8144 18.9359 14.2819 18.4728 14.194 18.447L13.4448 18.2261C13.3719 18.2045 13.2944 18.241 13.2645 18.3109L12.9573 19.0285C12.9573 19.0285 12.9573 19.0285 12.9573 19.0285C12.9324 19.0866 12.6599 19.7371 12.517 20.6398C12.3743 21.5411 12.3584 22.7095 12.8636 23.792C13.5614 25.2877 15.0511 26.129 15.9284 26.5145C15.9653 27.1304 16.0421 27.7429 16.1577 28.3496C14.7084 28.0613 13.3906 28.3604 13.3083 28.3796L13.3082 28.3796L12.5458 28.5585C12.4716 28.5759 12.4223 28.6462 12.4311 28.7219L12.5215 29.4992L12.5215 29.4993C12.5288 29.5618 12.6157 30.2619 12.9414 31.116C13.2666 31.9685 13.8354 32.9892 14.8155 33.6748C15.969 34.4821 17.4885 34.6704 18.8669 34.5157C19.3228 35.1091 19.8379 35.648 20.3567 36.1235C18.9939 36.7183 18.0761 37.7273 18.0192 37.7906L18.0191 37.7907L17.4944 38.3763C17.4434 38.4333 17.4434 38.5196 17.4944 38.5765L18.0191 39.1622L18.0192 39.1622C18.0612 39.2091 18.536 39.7308 19.2945 40.2418C20.0516 40.7519 21.1046 41.2601 22.2998 41.2601C23.8512 41.2601 25.1637 40.4044 25.9063 39.7925C27.0546 40.4084 27.1307 40.4524 27.2257 40.5073C27.2715 40.5338 27.3218 40.5628 27.4992 40.66C27.544 40.6845 27.5983 40.6845 27.6432 40.66C27.9362 40.4998 28.0452 40.4389 28.0779 40.4194C28.082 40.4169 28.0874 40.4136 28.0925 40.4102L28.0927 40.4101C28.0944 40.4089 28.101 40.4044 28.1083 40.3981C28.1377 40.3823 28.1794 40.3598 28.2376 40.3286C28.4045 40.2389 28.7059 40.0775 29.238 39.7925C29.9805 40.4044 31.2931 41.2601 32.8445 41.2601C34.0398 41.2601 35.0927 40.7519 35.8499 40.2418C36.6083 39.7308 37.0831 39.2091 37.1251 39.1622L37.1252 39.1622L37.6499 38.5765C37.7009 38.5196 37.7009 38.4333 37.6499 38.3763L37.1252 37.7907L37.1251 37.7906C37.0682 37.7272 36.1503 36.7185 34.7876 36.1235C35.3064 35.648 35.8216 35.1091 36.2774 34.5157C37.6561 34.6703 39.1755 34.4819 40.3288 33.6748C41.309 32.9891 41.8775 31.9683 42.2023 31.1156C42.5276 30.2614 42.6141 29.5611 42.6214 29.4986L42.6214 29.4984L42.7112 28.7218C42.7199 28.6461 42.6706 28.5759 42.5965 28.5585L41.8346 28.3796L41.8344 28.3796C41.7521 28.3604 40.4353 28.0615 38.9866 28.3497C39.1023 27.743 39.1792 27.1304 39.2159 26.5144C40.0933 26.129 41.5829 25.2877 42.281 23.792C42.7862 22.7095 42.7702 21.5411 42.6275 20.6398C42.4845 19.7369 42.2119 19.0865 42.1874 19.0287ZM40.4164 22.923L40.5523 22.9865L40.4164 22.9231C40.1025 23.5956 39.4483 24.0801 38.8772 24.3931C38.7616 23.7685 38.7255 22.976 39.0372 22.3078C39.3513 21.6349 40.0056 21.1506 40.5766 20.8377C40.6921 21.4623 40.7283 22.2549 40.4164 22.923ZM38.3133 30.7984L38.2273 30.6755L38.3133 30.7984C38.9126 30.3791 39.6895 30.2753 40.3195 30.2786C40.1082 30.8748 39.7462 31.573 39.1491 31.9908C38.5493 32.4105 37.7693 32.5142 37.1361 32.5106C37.3493 31.9148 37.7135 31.218 38.3133 30.7984ZM18.057 15.68C18.057 14.9507 18.4218 14.2811 18.7849 13.7971C19.1484 14.282 19.514 14.9527 19.514 15.68C19.514 16.4094 19.1502 17.0861 18.7861 17.5784C18.4219 17.0854 18.057 16.4075 18.057 15.68ZM15.9953 31.9908C15.3959 31.5714 15.0337 30.8738 14.8227 30.2786C15.4536 30.2751 16.2315 30.3788 16.8313 30.7982C17.431 31.2178 17.7953 31.9148 18.0084 32.5105C17.3752 32.5142 16.5951 32.4105 15.9953 31.9908ZM22.2998 39.2044C21.5677 39.2044 20.8691 38.8421 20.3525 38.4764C20.8692 38.1107 21.5679 37.7485 22.2998 37.7485C23.0319 37.7485 23.7304 38.1105 24.2471 38.4764C23.7304 38.8422 23.0319 39.2044 22.2998 39.2044ZM35.6305 15.7385C35.6305 15.0079 35.9942 14.3237 36.3589 13.8235C36.7238 14.324 37.0876 15.008 37.0876 15.7385C37.0876 16.467 36.7221 17.1295 36.3595 17.6056C35.9968 17.1289 35.6305 16.4656 35.6305 15.7385ZM32.8445 39.2044C32.1131 39.2044 31.4151 38.8428 30.8985 38.4772C31.4162 38.1112 32.1155 37.7485 32.8445 37.7485C33.5769 37.7485 34.2755 38.1107 34.7919 38.4764C34.2752 38.8422 33.5767 39.2044 32.8445 39.2044Z" fill="url(#paint0_linear)" stroke="url(#paint1_linear)" stroke-width="0.3" stroke-linecap="round" stroke-linejoin="round"/>
<path id="Path (Stroke)" fill-rule="evenodd" clip-rule="evenodd" d="M27.5726 35.084C27.5726 35.084 34.0397 31.8504 34.0397 27.0001V21.3414L27.5726 18.9162L21.1055 21.3414V27.0001C21.1055 31.8504 27.5726 35.084 27.5726 35.084ZM23.7511 23.1748V27.0001C23.7511 28.2441 24.6225 29.5935 26.0812 30.8699C26.5973 31.3215 27.1208 31.7048 27.5726 32.0063C28.0244 31.7048 28.5478 31.3215 29.064 30.8699C30.5227 29.5935 31.394 28.2441 31.394 27.0001V23.1748L27.5726 21.7417L23.7511 23.1748ZM28.7599 32.7197C28.7622 32.7209 28.763 32.7213 28.7623 32.7209L28.7601 32.7198L28.7599 32.7197Z" fill="url(#paint2_linear)"/>
<path id="Union" fill-rule="evenodd" clip-rule="evenodd" d="M6.40744 9.95783C7.04937 9.95783 7.65926 10.095 8.2094 10.3416L25.0537 0.653971C25.8474 0.213032 26.8175 -0.0515747 27.6994 -0.0515747C28.6694 -0.0515747 29.5513 0.213032 30.345 0.653971L44.8078 9.03181C43.7496 9.73731 42.9559 10.7955 42.4268 12.0301L28.4049 3.91688C28.1404 3.74054 27.8759 3.74054 27.6114 3.74054H27.6112C27.3466 3.74054 27.0821 3.82869 26.8175 3.91688L10.6603 13.1987C10.7623 13.5709 10.8168 13.9627 10.8168 14.3672C10.8168 16.8025 8.84268 18.7766 6.40744 18.7766C3.9722 18.7766 1.99805 16.8025 1.99805 14.3672C1.99805 11.932 3.9722 9.95783 6.40744 9.95783ZM47.2817 10.2038C47.7375 10.0445 48.2274 9.95783 48.7376 9.95783C51.1728 9.95783 53.147 11.932 53.147 14.3672C53.147 15.9833 52.2776 17.3963 50.981 18.1641V36.2818C50.981 38.2219 49.9227 39.9857 48.3353 40.9558L33.8725 49.2454C33.8725 47.9226 33.4316 46.5998 32.6379 45.6297L46.3952 37.6928C46.9243 37.4283 47.1889 36.8991 47.1889 36.2818V18.497C45.7256 17.948 44.6318 16.6436 44.3821 15.0588C44.3145 14.767 44.2787 14.4619 44.2787 14.1466C44.2787 13.2648 44.5433 12.4711 45.0724 11.7656C45.1165 11.7215 45.1606 11.6554 45.2047 11.5892C45.2488 11.5231 45.2928 11.4569 45.3369 11.4128C45.6015 11.1483 45.7779 10.9719 46.0424 10.7956C46.0424 10.7956 46.1306 10.7955 46.1306 10.7073C46.1851 10.6528 46.2396 10.632 46.3149 10.6032C46.3615 10.5855 46.416 10.5647 46.4834 10.531C46.4834 10.531 46.5716 10.531 46.5716 10.4428C46.6598 10.3987 46.7259 10.3766 46.792 10.3546L46.7921 10.3546L46.7921 10.3546C46.8582 10.3325 46.9244 10.3104 47.0125 10.2664C47.0976 10.2451 47.1877 10.2238 47.2817 10.2038ZM31.8442 48.5448C31.9341 48.8957 31.9819 49.2634 31.9819 49.6423C31.9819 52.0776 30.0077 54.0517 27.5725 54.0517C25.3768 54.0517 23.5559 52.4468 23.219 50.3461L7.15163 41.0439C5.47606 40.0739 4.506 38.3102 4.506 36.37V20.0553C5.12331 20.2317 5.82882 20.408 6.44614 20.408C7.06345 20.408 7.68077 20.3198 8.20989 20.1435V36.37C8.20989 36.9873 8.56261 37.5164 9.00355 37.781L24.3327 46.6512C25.1383 45.7791 26.2916 45.2329 27.5725 45.2329C29.6265 45.2329 31.3524 46.6373 31.8425 48.5382L31.844 48.5397L31.8442 48.5399V48.5448Z" fill="url(#paint3_linear)"/>
</g>
</g>
<g id="Frame 12">
<path id="Envelop" d="M68.96 25.112C68.1813 25.112 67.4773 24.9787 66.848 24.712C66.2293 24.4453 65.7387 24.0613 65.376 23.56C65.0133 23.0587 64.8267 22.4667 64.816 21.784H67.216C67.248 22.2427 67.408 22.6053 67.696 22.872C67.9947 23.1387 68.4 23.272 68.912 23.272C69.4347 23.272 69.8453 23.1493 70.144 22.904C70.4427 22.648 70.592 22.3173 70.592 21.912C70.592 21.5813 70.4907 21.3093 70.288 21.096C70.0853 20.8827 69.8293 20.7173 69.52 20.6C69.2213 20.472 68.8053 20.3333 68.272 20.184C67.5467 19.9707 66.9547 19.7627 66.496 19.56C66.048 19.3467 65.6587 19.032 65.328 18.616C65.008 18.1893 64.848 17.624 64.848 16.92C64.848 16.2587 65.0133 15.6827 65.344 15.192C65.6747 14.7013 66.1387 14.328 66.736 14.072C67.3333 13.8053 68.016 13.672 68.784 13.672C69.936 13.672 70.8693 13.9547 71.584 14.52C72.3093 15.0747 72.7093 15.8533 72.784 16.856H70.32C70.2987 16.472 70.1333 16.1573 69.824 15.912C69.5253 15.656 69.1253 15.528 68.624 15.528C68.1867 15.528 67.8347 15.64 67.568 15.864C67.312 16.088 67.184 16.4133 67.184 16.84C67.184 17.1387 67.28 17.3893 67.472 17.592C67.6747 17.784 67.92 17.944 68.208 18.072C68.5067 18.1893 68.9227 18.328 69.456 18.488C70.1813 18.7013 70.7733 18.9147 71.232 19.128C71.6907 19.3413 72.0853 19.6613 72.416 20.088C72.7467 20.5147 72.912 21.0747 72.912 21.768C72.912 22.3653 72.7573 22.92 72.448 23.432C72.1387 23.944 71.6853 24.3547 71.088 24.664C70.4907 24.9627 69.7813 25.112 68.96 25.112ZM79.846 16.008C80.518 16.008 81.1153 16.1573 81.638 16.456C82.1607 16.744 82.566 17.176 82.854 17.752C83.1527 18.3173 83.302 19 83.302 19.8V25H81.062V20.104C81.062 19.4 80.886 18.8613 80.534 18.488C80.182 18.104 79.702 17.912 79.094 17.912C78.4753 17.912 77.9847 18.104 77.622 18.488C77.27 18.8613 77.094 19.4 77.094 20.104V25H74.854V13.16H77.094V17.24C77.382 16.856 77.766 16.5573 78.246 16.344C78.726 16.12 79.2593 16.008 79.846 16.008ZM86.5681 15.08C86.1735 15.08 85.8428 14.9573 85.5761 14.712C85.3201 14.456 85.1921 14.1413 85.1921 13.768C85.1921 13.3947 85.3201 13.0853 85.5761 12.84C85.8428 12.584 86.1735 12.456 86.5681 12.456C86.9628 12.456 87.2881 12.584 87.5441 12.84C87.8108 13.0853 87.9441 13.3947 87.9441 13.768C87.9441 14.1413 87.8108 14.456 87.5441 14.712C87.2881 14.9573 86.9628 15.08 86.5681 15.08ZM87.6721 16.136V25H85.4321V16.136H87.6721ZM98.1253 20.376C98.1253 20.696 98.1039 20.984 98.0613 21.24H91.5813C91.6346 21.88 91.8586 22.3813 92.2533 22.744C92.6479 23.1067 93.1333 23.288 93.7093 23.288C94.5413 23.288 95.1333 22.9307 95.4853 22.216H97.9013C97.6453 23.0693 97.1546 23.7733 96.4293 24.328C95.7039 24.872 94.8133 25.144 93.7573 25.144C92.9039 25.144 92.1359 24.9573 91.4533 24.584C90.7813 24.2 90.2533 23.6613 89.8693 22.968C89.4959 22.2747 89.3092 21.4747 89.3092 20.568C89.3092 19.6507 89.4959 18.8453 89.8693 18.152C90.2426 17.4587 90.7653 16.9253 91.4373 16.552C92.1093 16.1787 92.8826 15.992 93.7573 15.992C94.5999 15.992 95.3519 16.1733 96.0133 16.536C96.6853 16.8987 97.2026 17.416 97.5653 18.088C97.9386 18.7493 98.1253 19.512 98.1253 20.376ZM95.8053 19.736C95.7946 19.16 95.5866 18.7013 95.1813 18.36C94.7759 18.008 94.2799 17.832 93.6933 17.832C93.1386 17.832 92.6693 18.0027 92.2853 18.344C91.9119 18.6747 91.6826 19.1387 91.5973 19.736H95.8053ZM102 13.16V25H99.7603V13.16H102ZM103.637 20.536C103.637 19.64 103.813 18.8453 104.165 18.152C104.528 17.4587 105.019 16.9253 105.637 16.552C106.256 16.1787 106.944 15.992 107.701 15.992C108.277 15.992 108.827 16.12 109.349 16.376C109.872 16.6213 110.288 16.952 110.597 17.368V13.16H112.869V25H110.597V23.688C110.32 24.1253 109.931 24.4773 109.429 24.744C108.928 25.0107 108.347 25.144 107.685 25.144C106.939 25.144 106.256 24.952 105.637 24.568C105.019 24.184 104.528 23.6453 104.165 22.952C103.813 22.248 103.637 21.4427 103.637 20.536ZM110.613 20.568C110.613 20.024 110.507 19.56 110.293 19.176C110.08 18.7813 109.792 18.4827 109.429 18.28C109.067 18.0667 108.677 17.96 108.261 17.96C107.845 17.96 107.461 18.0613 107.109 18.264C106.757 18.4667 106.469 18.7653 106.245 19.16C106.032 19.544 105.925 20.0027 105.925 20.536C105.925 21.0693 106.032 21.5387 106.245 21.944C106.469 22.3387 106.757 22.6427 107.109 22.856C107.472 23.0693 107.856 23.176 108.261 23.176C108.677 23.176 109.067 23.0747 109.429 22.872C109.792 22.6587 110.08 22.36 110.293 21.976C110.507 21.5813 110.613 21.112 110.613 20.568Z" fill="#0B0D11"/>
<path id="Modern GraphQL Framework" d="M70.732 37.144C70.732 37.568 70.632 37.968 70.432 38.344C70.232 38.72 69.912 39.028 69.472 39.268C69.032 39.5 68.468 39.616 67.78 39.616H66.268V43H64.9V34.66H67.78C68.42 34.66 68.96 34.772 69.4 34.996C69.848 35.212 70.18 35.508 70.396 35.884C70.62 36.26 70.732 36.68 70.732 37.144ZM67.78 38.5C68.3 38.5 68.688 38.384 68.944 38.152C69.2 37.912 69.328 37.576 69.328 37.144C69.328 36.232 68.812 35.776 67.78 35.776H66.268V38.5H67.78ZM78.0967 39.532C78.0967 39.78 78.0807 40.004 78.0487 40.204H72.9967C73.0367 40.732 73.2327 41.156 73.5847 41.476C73.9367 41.796 74.3687 41.956 74.8807 41.956C75.6167 41.956 76.1367 41.648 76.4407 41.032H77.9167C77.7167 41.64 77.3527 42.14 76.8247 42.532C76.3047 42.916 75.6567 43.108 74.8807 43.108C74.2487 43.108 73.6807 42.968 73.1767 42.688C72.6807 42.4 72.2887 42 72.0007 41.488C71.7207 40.968 71.5807 40.368 71.5807 39.688C71.5807 39.008 71.7167 38.412 71.9887 37.9C72.2687 37.38 72.6567 36.98 73.1527 36.7C73.6567 36.42 74.2327 36.28 74.8807 36.28C75.5047 36.28 76.0607 36.416 76.5487 36.688C77.0367 36.96 77.4167 37.344 77.6887 37.84C77.9607 38.328 78.0967 38.892 78.0967 39.532ZM76.6687 39.1C76.6607 38.596 76.4807 38.192 76.1287 37.888C75.7767 37.584 75.3407 37.432 74.8207 37.432C74.3487 37.432 73.9447 37.584 73.6087 37.888C73.2727 38.184 73.0727 38.588 73.0087 39.1H76.6687ZM80.811 37.348C81.011 37.012 81.275 36.752 81.603 36.568C81.939 36.376 82.335 36.28 82.791 36.28V37.696H82.443C81.907 37.696 81.499 37.832 81.219 38.104C80.947 38.376 80.811 38.848 80.811 39.52V43H79.443V36.388H80.811V37.348ZM92.0524 36.28C92.5724 36.28 93.0364 36.388 93.4444 36.604C93.8604 36.82 94.1844 37.14 94.4164 37.564C94.6564 37.988 94.7764 38.5 94.7764 39.1V43H93.4204V39.304C93.4204 38.712 93.2724 38.26 92.9764 37.948C92.6804 37.628 92.2764 37.468 91.7644 37.468C91.2524 37.468 90.8444 37.628 90.5404 37.948C90.2444 38.26 90.0964 38.712 90.0964 39.304V43H88.7404V39.304C88.7404 38.712 88.5924 38.26 88.2964 37.948C88.0004 37.628 87.5964 37.468 87.0844 37.468C86.5724 37.468 86.1644 37.628 85.8604 37.948C85.5644 38.26 85.4164 38.712 85.4164 39.304V43H84.0484V36.388H85.4164V37.144C85.6404 36.872 85.9244 36.66 86.2684 36.508C86.6124 36.356 86.9804 36.28 87.3724 36.28C87.9004 36.28 88.3724 36.392 88.7884 36.616C89.2044 36.84 89.5244 37.164 89.7484 37.588C89.9484 37.188 90.2604 36.872 90.6844 36.64C91.1084 36.4 91.5644 36.28 92.0524 36.28ZM97.2132 35.512C96.9652 35.512 96.7572 35.428 96.5892 35.26C96.4212 35.092 96.3372 34.884 96.3372 34.636C96.3372 34.388 96.4212 34.18 96.5892 34.012C96.7572 33.844 96.9652 33.76 97.2132 33.76C97.4532 33.76 97.6572 33.844 97.8252 34.012C97.9932 34.18 98.0772 34.388 98.0772 34.636C98.0772 34.884 97.9932 35.092 97.8252 35.26C97.6572 35.428 97.4532 35.512 97.2132 35.512ZM97.8852 36.388V43H96.5172V36.388H97.8852ZM102.081 43.108C101.561 43.108 101.093 43.016 100.677 42.832C100.269 42.64 99.9453 42.384 99.7053 42.064C99.4653 41.736 99.3373 41.372 99.3213 40.972H100.737C100.761 41.252 100.893 41.488 101.133 41.68C101.381 41.864 101.689 41.956 102.057 41.956C102.441 41.956 102.737 41.884 102.945 41.74C103.161 41.588 103.269 41.396 103.269 41.164C103.269 40.916 103.149 40.732 102.909 40.612C102.677 40.492 102.305 40.36 101.793 40.216C101.297 40.08 100.893 39.948 100.581 39.82C100.269 39.692 99.9973 39.496 99.7653 39.232C99.5413 38.968 99.4293 38.62 99.4293 38.188C99.4293 37.836 99.5333 37.516 99.7413 37.228C99.9493 36.932 100.245 36.7 100.629 36.532C101.021 36.364 101.469 36.28 101.973 36.28C102.725 36.28 103.329 36.472 103.785 36.856C104.249 37.232 104.497 37.748 104.529 38.404H103.161C103.137 38.108 103.017 37.872 102.801 37.696C102.585 37.52 102.293 37.432 101.925 37.432C101.565 37.432 101.289 37.5 101.097 37.636C100.905 37.772 100.809 37.952 100.809 38.176C100.809 38.352 100.873 38.5 101.001 38.62C101.129 38.74 101.285 38.836 101.469 38.908C101.653 38.972 101.925 39.056 102.285 39.16C102.765 39.288 103.157 39.42 103.461 39.556C103.773 39.684 104.041 39.876 104.265 40.132C104.489 40.388 104.605 40.728 104.613 41.152C104.613 41.528 104.509 41.864 104.301 42.16C104.093 42.456 103.797 42.688 103.413 42.856C103.037 43.024 102.593 43.108 102.081 43.108ZM108.491 43.108C107.971 43.108 107.503 43.016 107.087 42.832C106.679 42.64 106.355 42.384 106.115 42.064C105.875 41.736 105.747 41.372 105.731 40.972H107.147C107.171 41.252 107.303 41.488 107.543 41.68C107.791 41.864 108.099 41.956 108.467 41.956C108.851 41.956 109.147 41.884 109.355 41.74C109.571 41.588 109.679 41.396 109.679 41.164C109.679 40.916 109.559 40.732 109.319 40.612C109.087 40.492 108.715 40.36 108.203 40.216C107.707 40.08 107.303 39.948 106.991 39.82C106.679 39.692 106.407 39.496 106.175 39.232C105.951 38.968 105.839 38.62 105.839 38.188C105.839 37.836 105.943 37.516 106.151 37.228C106.359 36.932 106.655 36.7 107.039 36.532C107.431 36.364 107.879 36.28 108.383 36.28C109.135 36.28 109.739 36.472 110.195 36.856C110.659 37.232 110.907 37.748 110.939 38.404H109.571C109.547 38.108 109.427 37.872 109.211 37.696C108.995 37.52 108.703 37.432 108.335 37.432C107.975 37.432 107.699 37.5 107.507 37.636C107.315 37.772 107.219 37.952 107.219 38.176C107.219 38.352 107.283 38.5 107.411 38.62C107.539 38.74 107.695 38.836 107.879 38.908C108.063 38.972 108.335 39.056 108.695 39.16C109.175 39.288 109.567 39.42 109.871 39.556C110.183 39.684 110.451 39.876 110.675 40.132C110.899 40.388 111.015 40.728 111.023 41.152C111.023 41.528 110.919 41.864 110.711 42.16C110.503 42.456 110.207 42.688 109.823 42.856C109.447 43.024 109.003 43.108 108.491 43.108ZM113.198 35.512C112.95 35.512 112.742 35.428 112.574 35.26C112.406 35.092 112.322 34.884 112.322 34.636C112.322 34.388 112.406 34.18 112.574 34.012C112.742 33.844 112.95 33.76 113.198 33.76C113.438 33.76 113.642 33.844 113.81 34.012C113.978 34.18 114.062 34.388 114.062 34.636C114.062 34.884 113.978 35.092 113.81 35.26C113.642 35.428 113.438 35.512 113.198 35.512ZM113.87 36.388V43H112.502V36.388H113.87ZM118.534 43.108C117.91 43.108 117.346 42.968 116.842 42.688C116.338 42.4 115.942 42 115.654 41.488C115.366 40.968 115.222 40.368 115.222 39.688C115.222 39.016 115.37 38.42 115.666 37.9C115.962 37.38 116.366 36.98 116.878 36.7C117.39 36.42 117.962 36.28 118.594 36.28C119.226 36.28 119.798 36.42 120.31 36.7C120.822 36.98 121.226 37.38 121.522 37.9C121.818 38.42 121.966 39.016 121.966 39.688C121.966 40.36 121.814 40.956 121.51 41.476C121.206 41.996 120.79 42.4 120.262 42.688C119.742 42.968 119.166 43.108 118.534 43.108ZM118.534 41.92C118.886 41.92 119.214 41.836 119.518 41.668C119.83 41.5 120.082 41.248 120.274 40.912C120.466 40.576 120.562 40.168 120.562 39.688C120.562 39.208 120.47 38.804 120.286 38.476C120.102 38.14 119.858 37.888 119.554 37.72C119.25 37.552 118.922 37.468 118.57 37.468C118.218 37.468 117.89 37.552 117.586 37.72C117.29 37.888 117.054 38.14 116.878 38.476C116.702 38.804 116.614 39.208 116.614 39.688C116.614 40.4 116.794 40.952 117.154 41.344C117.522 41.728 117.982 41.92 118.534 41.92ZM126.654 36.28C127.174 36.28 127.638 36.388 128.046 36.604C128.462 36.82 128.786 37.14 129.018 37.564C129.25 37.988 129.366 38.5 129.366 39.1V43H128.01V39.304C128.01 38.712 127.862 38.26 127.566 37.948C127.27 37.628 126.866 37.468 126.354 37.468C125.842 37.468 125.434 37.628 125.13 37.948C124.834 38.26 124.686 38.712 124.686 39.304V43H123.318V36.388H124.686V37.144C124.91 36.872 125.194 36.66 125.538 36.508C125.89 36.356 126.262 36.28 126.654 36.28ZM139.136 34.66V35.776H135.596V38.236H138.356V39.352H135.596V43H134.228V34.66H139.136ZM141.772 37.348C141.972 37.012 142.236 36.752 142.564 36.568C142.9 36.376 143.296 36.28 143.752 36.28V37.696H143.404C142.868 37.696 142.46 37.832 142.18 38.104C141.908 38.376 141.772 38.848 141.772 39.52V43H140.404V36.388H141.772V37.348ZM144.553 39.664C144.553 39 144.689 38.412 144.961 37.9C145.241 37.388 145.617 36.992 146.089 36.712C146.569 36.424 147.097 36.28 147.673 36.28C148.193 36.28 148.645 36.384 149.029 36.592C149.421 36.792 149.733 37.044 149.965 37.348V36.388H151.345V43H149.965V42.016C149.733 42.328 149.417 42.588 149.017 42.796C148.617 43.004 148.161 43.108 147.649 43.108C147.081 43.108 146.561 42.964 146.089 42.676C145.617 42.38 145.241 41.972 144.961 41.452C144.689 40.924 144.553 40.328 144.553 39.664ZM149.965 39.688C149.965 39.232 149.869 38.836 149.677 38.5C149.493 38.164 149.249 37.908 148.945 37.732C148.641 37.556 148.313 37.468 147.961 37.468C147.609 37.468 147.281 37.556 146.977 37.732C146.673 37.9 146.425 38.152 146.233 38.488C146.049 38.816 145.957 39.208 145.957 39.664C145.957 40.12 146.049 40.52 146.233 40.864C146.425 41.208 146.673 41.472 146.977 41.656C147.289 41.832 147.617 41.92 147.961 41.92C148.313 41.92 148.641 41.832 148.945 41.656C149.249 41.48 149.493 41.224 149.677 40.888C149.869 40.544 149.965 40.144 149.965 39.688ZM161.146 36.28C161.666 36.28 162.13 36.388 162.538 36.604C162.954 36.82 163.278 37.14 163.51 37.564C163.75 37.988 163.87 38.5 163.87 39.1V43H162.514V39.304C162.514 38.712 162.366 38.26 162.07 37.948C161.774 37.628 161.37 37.468 160.858 37.468C160.346 37.468 159.938 37.628 159.634 37.948C159.338 38.26 159.19 38.712 159.19 39.304V43H157.834V39.304C157.834 38.712 157.686 38.26 157.39 37.948C157.094 37.628 156.69 37.468 156.178 37.468C155.666 37.468 155.258 37.628 154.954 37.948C154.658 38.26 154.51 38.712 154.51 39.304V43H153.142V36.388H154.51V37.144C154.734 36.872 155.018 36.66 155.362 36.508C155.706 36.356 156.074 36.28 156.466 36.28C156.994 36.28 157.466 36.392 157.882 36.616C158.298 36.84 158.618 37.164 158.842 37.588C159.042 37.188 159.354 36.872 159.778 36.64C160.202 36.4 160.658 36.28 161.146 36.28ZM171.671 39.532C171.671 39.78 171.655 40.004 171.623 40.204H166.571C166.611 40.732 166.807 41.156 167.159 41.476C167.511 41.796 167.943 41.956 168.455 41.956C169.191 41.956 169.711 41.648 170.015 41.032H171.491C171.291 41.64 170.927 42.14 170.399 42.532C169.879 42.916 169.231 43.108 168.455 43.108C167.823 43.108 167.255 42.968 166.751 42.688C166.255 42.4 165.863 42 165.575 41.488C165.295 40.968 165.155 40.368 165.155 39.688C165.155 39.008 165.291 38.412 165.563 37.9C165.843 37.38 166.231 36.98 166.727 36.7C167.231 36.42 167.807 36.28 168.455 36.28C169.079 36.28 169.635 36.416 170.123 36.688C170.611 36.96 170.991 37.344 171.263 37.84C171.535 38.328 171.671 38.892 171.671 39.532ZM170.243 39.1C170.235 38.596 170.055 38.192 169.703 37.888C169.351 37.584 168.915 37.432 168.395 37.432C167.923 37.432 167.519 37.584 167.183 37.888C166.847 38.184 166.647 38.588 166.583 39.1H170.243ZM181.897 36.388L179.845 43H178.405L177.073 38.116L175.741 43H174.301L172.237 36.388H173.629L175.009 41.704L176.413 36.388H177.841L179.185 41.68L180.553 36.388H181.897ZM185.788 43.108C185.164 43.108 184.6 42.968 184.096 42.688C183.592 42.4 183.196 42 182.908 41.488C182.62 40.968 182.476 40.368 182.476 39.688C182.476 39.016 182.624 38.42 182.92 37.9C183.216 37.38 183.62 36.98 184.132 36.7C184.644 36.42 185.216 36.28 185.848 36.28C186.48 36.28 187.052 36.42 187.564 36.7C188.076 36.98 188.48 37.38 188.776 37.9C189.072 38.42 189.22 39.016 189.22 39.688C189.22 40.36 189.068 40.956 188.764 41.476C188.46 41.996 188.044 42.4 187.516 42.688C186.996 42.968 186.42 43.108 185.788 43.108ZM185.788 41.92C186.14 41.92 186.468 41.836 186.772 41.668C187.084 41.5 187.336 41.248 187.528 40.912C187.72 40.576 187.816 40.168 187.816 39.688C187.816 39.208 187.724 38.804 187.54 38.476C187.356 38.14 187.112 37.888 186.808 37.72C186.504 37.552 186.176 37.468 185.824 37.468C185.472 37.468 185.144 37.552 184.84 37.72C184.544 37.888 184.308 38.14 184.132 38.476C183.956 38.804 183.868 39.208 183.868 39.688C183.868 40.4 184.048 40.952 184.408 41.344C184.776 41.728 185.236 41.92 185.788 41.92ZM191.94 37.348C192.14 37.012 192.404 36.752 192.732 36.568C193.068 36.376 193.464 36.28 193.92 36.28V37.696H193.572C193.036 37.696 192.628 37.832 192.348 38.104C192.076 38.376 191.94 38.848 191.94 39.52V43H190.572V36.388H191.94V37.348ZM197.793 39.7L200.841 43H198.993L196.545 40.156V43H195.177V34.12H196.545V39.28L198.945 36.388H200.841L197.793 39.7Z" fill="#7F818C"/>
</g>
</g>
<defs>
<linearGradient id="paint0_linear" x1="9.20152" y1="10.0643" x2="54.2393" y2="55.3652" gradientUnits="userSpaceOnUse">
<stop stop-color="#47DEFF"/>
<stop offset="1" stop-color="#9847FF"/>
</linearGradient>
<linearGradient id="paint1_linear" x1="9.20152" y1="10.0643" x2="54.2393" y2="55.3652" gradientUnits="userSpaceOnUse">
<stop stop-color="#47DEFF"/>
<stop offset="1" stop-color="#9847FF"/>
</linearGradient>
<linearGradient id="paint2_linear" x1="19.6481" y1="18.3436" x2="43.3711" y2="37.4329" gradientUnits="userSpaceOnUse">
<stop stop-color="#47DEFF"/>
<stop offset="1" stop-color="#9847FF"/>
</linearGradient>
<linearGradient id="paint3_linear" x1="-3.76538" y1="-1.96783" x2="77.3999" y2="75.2137" gradientUnits="userSpaceOnUse">
<stop stop-color="#47DEFF"/>
<stop offset="1" stop-color="#9847FF"/>
</linearGradient>
</defs>
</svg>
